<svg xmlns="http://www.w3.org/2000/svg" viewBox="0 0 612 612"><defs><style>.cls-1{fill:#fff;}</style></defs><title>Baton-Rouge</title><g id="color-1"><path class="cls-1" d="M612,728.16H0v-612H612Zm-569.92-289c3.65,1.24,4.59,5.77,2.72,8.74A9,9,0,0,1,37,452.54a13,13,0,0,1-10.12-4.41c-.53-.57-1-1.19-1.5-1.79a267.37,267.37,0,0,0,21.89,88.37c10.18,23.42,35.31,63.43,43.37,69-.06-.61-.1-1.14-.16-1.66a13,13,0,0,1,3.18-10.31,9.14,9.14,0,0,1,9.58-3c3.75.86,5.45,4.1,4.25,8a19.66,19.66,0,0,0-2,.42,3.13,3.13,0,0,0-2.38,3,3.26,3.26,0,0,0,1.89,3.31,8.29,8.29,0,0,0,11.81-5.73,12.19,12.19,0,0,0-2-9.54c-.33-.46-.62-1-.93-1.42a9.65,9.65,0,0,1,5.89,5.18,12,12,0,0,1-.12,12.47l6.64-2.25-2.13,6.52c7.37-3.27,16.93.1,17.57,6l-1.59-1.11a12.11,12.11,0,0,0-9-2,8.3,8.3,0,0,0-6.12,11.81,3.39,3.39,0,0,0,6.4-.56,14.73,14.73,0,0,0,.26-1.8c4-1.29,7,.24,8,4.06a8.85,8.85,0,0,1-2.65,9.39,13.06,13.06,0,0,1-10.74,3.5c-.53-.05-1.07-.14-1.88-.25,6.51,7,31.55,24.11,48.05,33a289.48,289.48,0,0,0,53.27,22c20.55,6.28,51.82,11.31,56.74,10.18A13.5,13.5,0,0,1,276,693a9.37,9.37,0,0,1,5.35-9.78c3.3-1.49,6.42-.25,7.95,3.21a13.64,13.64,0,0,0-1.1,1.49,3.21,3.21,0,0,0,.32,3.79,3.28,3.28,0,0,0,3.41,1.16c4.43-1,7.46-7.23,5.37-11.26a12.13,12.13,0,0,0-8.83-6.55c-.56-.11-1.12-.24-2-.43,6.29-3,13.57.7,16.83,8.24l3.08-6,3,6.14c3.17-7.56,9.78-11,16.75-8.56-.85.25-1.39.45-1.94.55a12.17,12.17,0,0,0-8,5.18,8.31,8.31,0,0,0,4,12.51,3.54,3.54,0,0,0,4-.93,3.23,3.23,0,0,0,.33-4,16.9,16.9,0,0,0-1.05-1.48c1.79-3.48,4.87-4.62,8.12-2.93a8.74,8.74,0,0,1,5.08,7.78,12.76,12.76,0,0,1-4.83,10.71c-.56.47-1.13.92-2.16,1.75a280.54,280.54,0,0,0,57.59-10.83,283.46,283.46,0,0,0,53.51-22.17c17-9.17,45-28.56,47.33-32.83-5.21.62-8.79-.27-11.93-3a9.24,9.24,0,0,1-2.85-10c1.24-3.58,4-4.89,7.73-3.67.16.68.27,1.39.49,2.07a3.4,3.4,0,0,0,6.2.56c1.73-3.11,1.11-10.17-4.27-11.72a12.38,12.38,0,0,0-10.42,1.34c-.66.4-1.29.84-1.93,1.27.92-3,3.12-4.77,5.71-6a11.78,11.78,0,0,1,11.94.4l-2.06-6.6,6.36,2.12c-3.1-7.66-.45-15.66,5.95-17.79-.56.83-1,1.45-1.41,2.1a12,12,0,0,0-1.46,9.88,8.38,8.38,0,0,0,11.65,4.89,3.4,3.4,0,0,0-.37-6.31,19.51,19.51,0,0,0-2.22-.56c-.92-4.46.92-7.27,5.13-8a9,9,0,0,1,8.93,3.36,13.09,13.09,0,0,1,3,9.57c-.06.73,0,1.47,0,2.42,7.77-7.75,24-31.51,32.9-48a281.27,281.27,0,0,0,22-53.26c5.38-18.15,11.39-51,10.33-56.79-.39.5-.72.91-1,1.33a13.19,13.19,0,0,1-8.93,5.14,9.38,9.38,0,0,1-10.12-5.63c-1.25-3.2,0-6,3.27-7.47a13.12,13.12,0,0,0,1.76,1.17,3.4,3.4,0,0,0,4.76-3.82c-.81-4.28-7-7.52-10.91-5.68a11.8,11.8,0,0,0-6.57,7.53c-.31,1-.51,2.07-.76,3.11a9.87,9.87,0,0,1-.41-7.5c1.3-4.47,4-7.6,9.09-8.85l-3.11-1.5-3.27-1.6c1.33-.69,2.17-1.15,3-1.57s1.9-.91,3-1.43c-5.16-2.59-6.29-3.55-7.8-6.59-1.76-3.53-2-7.79-.51-9.95.24,1,.42,2,.7,2.92A11.85,11.85,0,0,0,566,413.1c4.09,2.09,10.23-.79,11.28-5.27a3.42,3.42,0,0,0-4.81-4,11.52,11.52,0,0,0-1.71,1.18c-3.48-1.77-4.61-4.58-3.06-7.85a8.76,8.76,0,0,1,8.14-5.37,12.81,12.81,0,0,1,10.46,4.84l1.79,2.13A282.1,282.1,0,0,0,555,287.8c-9.22-17-28.47-44.76-32.95-47.39a13.58,13.58,0,0,1-2,10.92,9.33,9.33,0,0,1-9.57,4.31c-4.22-.54-6.3-3.77-5.14-8a18.37,18.37,0,0,0,2.32-.6,3.23,3.23,0,0,0,2.15-2.88,3.32,3.32,0,0,0-1.65-3.2c-3.8-2.46-10.34-.2-11.79,4.12a11.85,11.85,0,0,0,1.4,10.63c.39.61.75,1.24,1.13,1.86a11.23,11.23,0,0,1-6.22-6.2,11.66,11.66,0,0,1,.71-11.61l-6.74,2.31,2.17-6.59c-7.38,3.34-15.43.65-17.89-5.87.86.57,1.48,1,2.13,1.4a12.57,12.57,0,0,0,10.42,1.38c5.33-1.51,6.06-8.51,4.33-11.7a3.4,3.4,0,0,0-6.21.48c-.25.75-.38,1.54-.55,2.25-4,1-7-.64-7.89-4.49a8.88,8.88,0,0,1,2.81-9.12,12.81,12.81,0,0,1,11-3.3c.45.07.91.09,1.37.13q-68.73-57.87-158-65.64a4.52,4.52,0,0,0,1.32,1.33,13.05,13.05,0,0,1,4.82,7.64c1.07,4.59-.77,8.87-4.6,10.89-3.42,1.8-6.48.81-8.39-2.81.34-.46.74-.94,1.07-1.47a3.12,3.12,0,0,0-.17-3.79,3.31,3.31,0,0,0-3.6-1.32c-4.43,1-7.43,7.21-5.38,11.26a12.1,12.1,0,0,0,8.79,6.59c.56.12,1.12.29,1.67.44-4.85,1.86-9.05.34-13.11-2.31a7.58,7.58,0,0,0,.92,1.94A52.91,52.91,0,0,0,325.54,182c11.48,8.84,22.68,18,32.34,28.87,8,9,15.32,18.65,20.55,29.53,9.69,20.15,12.16,41.43,8.46,63.44-1.65,9.86-5,19.2-8.74,28.43-4.78,11.86-11.16,22.9-17.36,34l-1.31,2.41a5.63,5.63,0,0,0,2.26-1.73,148.41,148.41,0,0,1,16.19-15.62A89.8,89.8,0,0,1,400.81,337c17.95-7.5,36.66-9,55.66-6A77.86,77.86,0,0,1,504.8,357.7c6.23,7.23,11.61,15,14.68,24.18a79.53,79.53,0,0,1,3.34,37.45,57.9,57.9,0,0,1-7.94,21.48c-8.43,13.93-20,24.55-34.93,31-15.23,6.63-31.23,7.95-47.58,5-8.23-1.49-15.85-4.37-22.41-9.69a44.52,44.52,0,0,1-7.61-7.93c.81-.29,1.37-.52,1.95-.7,2.42-.74,4.88-1.35,7.26-2.22a21.58,21.58,0,0,0,11-8.88c3.57-5.53,3.14-15.27-2.87-20.32a23.69,23.69,0,0,0-15.91-5.93,41,41,0,0,0-24.38,7.88c-13.73,10.08-21.65,23.74-24.69,40.36-.29,1.56-.38,3.14-.6,5.08h14.68c.1,2.1.19,3.86.27,5.55,7.29,1.67,9.64,2.73,12.55,5.74a18.14,18.14,0,0,1,1.33,23.8c-3.49,4.48-8.24,6.59-14,7.09v5.83H354.14c-.41,5.79,1.75,16.2,4.24,20.84a25.8,25.8,0,0,0,9.37,10,16.71,16.71,0,0,0,11.7,2.41,11,11,0,0,0,9.21-8.16,14.06,14.06,0,0,0-2.2-12.63c-.51-.73-1.06-1.43-1.55-2.1.17-.27.24-.47.37-.55a12.27,12.27,0,0,1,1.2-.61,26.2,26.2,0,0,1,14.34-2c19.05,2.53,32.45,21.67,27.78,40.33-3.81,15.21-13.47,25.27-28.8,29.48a46.18,46.18,0,0,1-7.45,1.42c-6.51.67-13,.83-19.4-1a55.74,55.74,0,0,1-20.47-10.83,60.79,60.79,0,0,1-14.81-18.87c-.61-1.16-1.27-2.3-1.91-3.44a4.9,4.9,0,0,0,.13,2.46c.94,3.49,2,7,2.85,10.46a74.79,74.79,0,0,1-.28,37.79,98,98,0,0,1-13.35,29.22c-6.32,9.48-12.73,18.9-17.91,29.07a8.21,8.21,0,0,1-.8,1c-.46-.71-.9-1.25-1.22-1.86a231.61,231.61,0,0,0-14.11-23.14,133,133,0,0,1-10.76-18.19c-8.91-18.7-11.12-38-5.11-58,.84-2.83,1.53-5.71,2.29-8.57a6.37,6.37,0,0,0-1.68,2.1c-1.36,2.34-2.64,4.74-4.1,7a54.48,54.48,0,0,1-32.15,23.84c-7.07,2-14.33,1.66-21.54.56-15-2.28-25.58-10.45-31.76-24.17A33.4,33.4,0,0,1,198,535.12c8.42-5.71,17.57-7.38,27.37-3.91,1,.34,1.86.87,2.94,1.38-.51.65-.77,1-1.06,1.34A14.7,14.7,0,0,0,223.75,545a11.63,11.63,0,0,0,10.1,10.73,16.81,16.81,0,0,0,11.4-2.58,24.92,24.92,0,0,0,11.08-14.56c1-3.55,1.52-7.24,2.16-10.88.28-1.64.32-3.32.5-5.29H243.82v-5.54c-11.58-2.49-17.62-8.72-17.74-18.19a17.74,17.74,0,0,1,3.79-11.36c3.47-4.48,8.21-6.62,14-7.19v-5.7c5.06-.26,9.9.09,14.81-.22-.11-1.35-.12-2.34-.27-3.32-2.26-14.5-8.48-27-19.17-37.12-8.11-7.71-17.66-12.14-28.94-12.54a23.23,23.23,0,0,0-17.79,6.62,14.83,14.83,0,0,0-4.37,12.62c.68,6.93,4.84,11.56,10.76,14.65a55.42,55.42,0,0,0,7.87,2.85c1.18.4,2.39.69,3.54,1a4,4,0,0,1-.06.5,3.89,3.89,0,0,1-.4.69,43.73,43.73,0,0,1-22.66,15.09,82.13,82.13,0,0,1-26.58,2.9c-19.19-1-35.83-7.81-49.76-21.2-18.29-17.59-24.76-38.86-20.48-63.7,2.41-14,8.9-25.85,18.26-36.31,13.73-15.37,31-24,51.32-26.62a114.28,114.28,0,0,1,26.53,0,85.35,85.35,0,0,1,43.19,16.77,142.71,142.71,0,0,1,21.87,20.25c.51.58,1.07,1.12,1.63,1.71.12-.21.21-.31.19-.34-.42-.8-.86-1.59-1.3-2.38-7.38-13.16-14.63-26.38-20-40.57-7.57-20.12-10-40.62-5.62-61.77a90.62,90.62,0,0,1,8.47-24.8,146.26,146.26,0,0,1,25.14-33.87,253.26,253.26,0,0,1,26.71-23,54.41,54.41,0,0,0,12.27-12.93,13.54,13.54,0,0,0,.83-1.81c-6.37,3.39-9.21,3.87-13.39,2.15l2.26-.52a12.23,12.23,0,0,0,8-5.54,8.33,8.33,0,0,0-4.53-12.15,3.34,3.34,0,0,0-3.68,1.06,3.17,3.17,0,0,0-.36,3.78,16.86,16.86,0,0,0,1.19,1.69c-2.18,3.77-5.44,4.67-8.94,2.54a8.57,8.57,0,0,1-4.12-5.49c-1.11-4.88.6-8.87,4-12.26.54-.54,1.16-1,1.74-1.51a266.12,266.12,0,0,0-86.49,21,272.57,272.57,0,0,0-71.12,44,3.06,3.06,0,0,0,1.38,0,13,13,0,0,1,10.82,3.22,8.86,8.86,0,0,1,2.89,9.56c-1.05,3.84-4,5.4-8,4.16a12.6,12.6,0,0,0-.36-2.05,3.4,3.4,0,0,0-6.19-.64c-2.38,4-.08,10.26,4.37,11.66A11.89,11.89,0,0,0,140,230.76l1.91-1.22a11.1,11.1,0,0,1-5.93,6.28,12.06,12.06,0,0,1-12-.32c.76,2.37,1.37,4.28,2.11,6.57l-6.63-2.16a11.43,11.43,0,0,1,1.07,10.41c-1.37,3.84-4.32,7-6.83,7.18.48-.7.95-1.36,1.39-2a12,12,0,0,0,1.47-9.65c-1.18-4.82-7.58-7.41-11.84-4.88a3.23,3.23,0,0,0-1.7,3.16,3.06,3.06,0,0,0,2.07,2.91,21,21,0,0,0,2.3.59c1.28,3.73-.42,7-4.19,7.91s-7.21,0-9.76-3.15a12.83,12.83,0,0,1-3-10.35,13.73,13.73,0,0,0,0-1.58C76.11,253.73,51.57,296,40.74,326A269.63,269.63,0,0,0,25.15,397.9a3.34,3.34,0,0,0,1.18-1.07,13.26,13.26,0,0,1,8.21-4.89,9.49,9.49,0,0,1,10.39,4.68c1.86,3.46.73,6.78-2.89,8.48a9.46,9.46,0,0,0-1.76-1.23,3.23,3.23,0,0,0-3.57.43,3.26,3.26,0,0,0-1.2,3.39c1.13,4.75,7.49,7.57,11.74,5.15a11.93,11.93,0,0,0,6-8.29c.14-.69.34-1.37.52-2.06a10.9,10.9,0,0,1,0,9.08A11.32,11.32,0,0,1,45.22,419l6.33,3.18-6.37,3.19a11,11,0,0,1,8.13,6.41c1.53,3.24,2.06,6.55.67,10a5.81,5.81,0,0,1-.71-2,12,12,0,0,0-4.87-7.56,8.25,8.25,0,0,0-12.71,3.91,3.3,3.3,0,0,0,.8,3.72,3.37,3.37,0,0,0,3.79.62A13.31,13.31,0,0,0,42.08,439.18Z" transform="translate(0 -116.16)"/><path d="M42.08,439.18a13.31,13.31,0,0,1-1.8,1.28,3.37,3.37,0,0,1-3.79-.62,3.3,3.3,0,0,1-.8-3.72,8.25,8.25,0,0,1,12.71-3.91,12,12,0,0,1,4.87,7.56,5.81,5.81,0,0,0,.71,2c1.39-3.45.86-6.76-.67-10a11,11,0,0,0-8.13-6.41l6.37-3.19L45.22,419a11.32,11.32,0,0,0,8.53-7.41,10.9,10.9,0,0,0,0-9.08c-.18.69-.38,1.37-.52,2.06a11.93,11.93,0,0,1-6,8.29c-4.25,2.42-10.61-.4-11.74-5.15a3.26,3.26,0,0,1,1.2-3.39,3.23,3.23,0,0,1,3.57-.43,9.87,9.87,0,0,1,1.77,1.23c3.61-1.7,4.74-5,2.88-8.48a9.49,9.49,0,0,0-10.39-4.68,13.26,13.26,0,0,0-8.21,4.89,3.34,3.34,0,0,1-1.18,1.07A269.63,269.63,0,0,1,40.74,326c10.83-30,35.37-72.23,49.77-85.54a13.73,13.73,0,0,1,0,1.58,12.83,12.83,0,0,0,3,10.35c2.55,3.14,5.93,4,9.76,3.15s5.47-4.18,4.19-7.91a21,21,0,0,1-2.3-.59,3.06,3.06,0,0,1-2.07-2.91,3.23,3.23,0,0,1,1.7-3.16c4.26-2.53,10.66.06,11.84,4.88a12,12,0,0,1-1.47,9.65c-.44.68-.91,1.34-1.39,2,2.51-.2,5.46-3.34,6.83-7.18a11.43,11.43,0,0,0-1.07-10.41l6.63,2.16c-.74-2.29-1.35-4.2-2.11-6.57a12.06,12.06,0,0,0,12,.32,11.1,11.1,0,0,0,5.93-6.28L140,230.76a11.89,11.89,0,0,1-10.62,1.57c-4.45-1.4-6.75-7.64-4.37-11.66a3.4,3.4,0,0,1,6.19.64,12.6,12.6,0,0,1,.36,2.05c4,1.24,7-.32,8-4.16a8.86,8.86,0,0,0-2.89-9.56,13,13,0,0,0-10.82-3.22,3.06,3.06,0,0,1-1.38,0,272.57,272.57,0,0,1,71.12-44,266.12,266.12,0,0,1,86.49-21c-.58.5-1.2,1-1.74,1.51-3.44,3.39-5.15,7.38-4,12.26a8.57,8.57,0,0,0,4.12,5.49c3.5,2.13,6.76,1.23,8.94-2.54a16.86,16.86,0,0,1-1.19-1.69,3.17,3.17,0,0,1,.36-3.78,3.34,3.34,0,0,1,3.68-1.06,8.33,8.33,0,0,1,4.53,12.15,12.23,12.23,0,0,1-8,5.54l-2.26.52c4.18,1.72,7,1.24,13.39-2.15a13.54,13.54,0,0,1-.83,1.81,54.41,54.41,0,0,1-12.27,12.93,253.26,253.26,0,0,0-26.71,23,146.26,146.26,0,0,0-25.14,33.87,90.62,90.62,0,0,0-8.47,24.8c-4.35,21.15-2,41.65,5.62,61.77,5.34,14.19,12.59,27.41,20,40.57.44.79.88,1.58,1.3,2.38,0,0-.07.13-.19.34-.56-.59-1.12-1.13-1.63-1.71a142.71,142.71,0,0,0-21.87-20.25,85.35,85.35,0,0,0-43.19-16.77,114.28,114.28,0,0,0-26.53,0c-20.36,2.6-37.59,11.25-51.32,26.62-9.36,10.46-15.85,22.31-18.26,36.31-4.28,24.84,2.19,46.11,20.48,63.7,13.93,13.39,30.57,20.21,49.76,21.2a82.13,82.13,0,0,0,26.58-2.9,43.73,43.73,0,0,0,22.66-15.09,3.89,3.89,0,0,0,.4-.69,4,4,0,0,0,.06-.5c-1.15-.33-2.36-.62-3.54-1a55.42,55.42,0,0,1-7.87-2.85c-5.92-3.09-10.08-7.72-10.76-14.65a14.83,14.83,0,0,1,4.37-12.62,23.23,23.23,0,0,1,17.79-6.62c11.28.4,20.83,4.83,28.94,12.54,10.69,10.15,16.91,22.62,19.17,37.12.15,1,.16,2,.27,3.32-4.91.31-9.75,0-14.81.22v5.7c-5.78.57-10.52,2.71-14,7.19a17.74,17.74,0,0,0-3.79,11.36c.12,9.47,6.16,15.7,17.74,18.19v5.54H259c-.18,2-.22,3.65-.5,5.29-.64,3.64-1.17,7.33-2.16,10.88a24.92,24.92,0,0,1-11.08,14.56,16.81,16.81,0,0,1-11.4,2.58A11.63,11.63,0,0,1,223.75,545a14.7,14.7,0,0,1,3.48-11.08c.29-.33.55-.69,1.06-1.34-1.08-.51-2-1-2.94-1.38-9.8-3.47-18.95-1.8-27.37,3.91a33.4,33.4,0,0,0-11.72,41.34c6.18,13.72,16.78,21.89,31.76,24.17,7.21,1.1,14.47,1.43,21.54-.56a54.48,54.48,0,0,0,32.15-23.84c1.46-2.28,2.74-4.68,4.1-7a6.37,6.37,0,0,1,1.68-2.1c-.76,2.86-1.45,5.74-2.29,8.57-6,20-3.8,39.29,5.11,58a133,133,0,0,0,10.76,18.19A231.61,231.61,0,0,1,305.18,675c.32.61.76,1.15,1.22,1.86a8.21,8.21,0,0,0,.8-1c5.18-10.17,11.59-19.59,17.91-29.07a98,98,0,0,0,13.35-29.22,74.79,74.79,0,0,0,.28-37.79c-.87-3.51-1.91-7-2.85-10.46a4.9,4.9,0,0,1-.13-2.46c.64,1.14,1.3,2.28,1.91,3.44a60.79,60.79,0,0,0,14.81,18.87A55.74,55.74,0,0,0,373,600c6.36,1.8,12.89,1.64,19.4,1a46.18,46.18,0,0,0,7.45-1.42c15.33-4.21,25-14.27,28.8-29.48,4.67-18.66-8.73-37.8-27.78-40.33a26.2,26.2,0,0,0-14.34,2,12.27,12.27,0,0,0-1.2.61c-.13.08-.2.28-.37.55.49.67,1,1.37,1.55,2.1a14.06,14.06,0,0,1,2.2,12.63,11,11,0,0,1-9.21,8.16,16.71,16.71,0,0,1-11.7-2.41,25.8,25.8,0,0,1-9.37-10c-2.49-4.64-4.65-15.05-4.24-20.84h14.73v-5.83c5.79-.5,10.54-2.61,14-7.09a18.14,18.14,0,0,0-1.33-23.8c-2.91-3-5.26-4.07-12.55-5.74-.08-1.69-.17-3.45-.27-5.55H354.07c.22-1.94.31-3.52.6-5.08,3-16.62,11-30.28,24.69-40.36a41,41,0,0,1,24.38-7.88,23.69,23.69,0,0,1,15.91,5.93c6,5,6.44,14.79,2.87,20.32a21.58,21.58,0,0,1-11,8.88c-2.38.87-4.84,1.48-7.26,2.22-.58.18-1.14.41-1.95.7a44.52,44.52,0,0,0,7.61,7.93c6.56,5.32,14.18,8.2,22.41,9.69,16.35,3,32.35,1.64,47.58-5,14.93-6.49,26.5-17.11,34.93-31a57.9,57.9,0,0,0,7.94-21.48,79.53,79.53,0,0,0-3.34-37.45c-3.07-9.18-8.45-16.95-14.68-24.18A77.86,77.86,0,0,0,456.47,331c-19-2.93-37.71-1.47-55.66,6a89.8,89.8,0,0,0-22.88,14.39A148.41,148.41,0,0,0,361.74,367a5.63,5.63,0,0,1-2.26,1.73l1.31-2.41c6.2-11.13,12.58-22.17,17.36-34,3.71-9.23,7.09-18.57,8.74-28.43,3.7-22,1.23-43.29-8.46-63.44-5.23-10.88-12.52-20.51-20.55-29.53C348.22,200,337,190.86,325.54,182a52.91,52.91,0,0,1-11.81-12.63,7.58,7.58,0,0,1-.92-1.94c4.06,2.65,8.26,4.17,13.11,2.31-.55-.15-1.11-.32-1.67-.44a12.1,12.1,0,0,1-8.79-6.59c-2-4,1-10.29,5.38-11.26a3.31,3.31,0,0,1,3.6,1.32,3.12,3.12,0,0,1,.17,3.79c-.33.53-.73,1-1.07,1.47,1.91,3.62,5,4.61,8.39,2.81,3.83-2,5.67-6.3,4.6-10.89a13.05,13.05,0,0,0-4.82-7.64,4.52,4.52,0,0,1-1.32-1.33q89.31,7.89,158,65.64c-.46,0-.92-.06-1.37-.13a12.81,12.81,0,0,0-11,3.3,8.88,8.88,0,0,0-2.81,9.12c.86,3.85,3.85,5.53,7.89,4.49.17-.71.3-1.5.55-2.25a3.4,3.4,0,0,1,6.21-.48c1.73,3.19,1,10.19-4.33,11.7A12.57,12.57,0,0,1,473.11,231c-.65-.4-1.27-.83-2.13-1.4,2.46,6.52,10.51,9.21,17.89,5.87l-2.17,6.59,6.74-2.31a11.66,11.66,0,0,0-.71,11.61,11.23,11.23,0,0,0,6.22,6.2c-.38-.62-.74-1.25-1.13-1.86a11.85,11.85,0,0,1-1.4-10.63c1.45-4.32,8-6.58,11.79-4.12a3.32,3.32,0,0,1,1.65,3.2,3.23,3.23,0,0,1-2.15,2.88,18.37,18.37,0,0,1-2.32.6c-1.16,4.23.92,7.46,5.14,8a9.33,9.33,0,0,0,9.57-4.31,13.58,13.58,0,0,0,2-10.92C526.55,243,545.8,270.78,555,287.8a282.1,282.1,0,0,1,33.09,111l-1.79-2.13a12.81,12.81,0,0,0-10.46-4.84,8.76,8.76,0,0,0-8.14,5.37c-1.55,3.27-.42,6.08,3.06,7.85a11.52,11.52,0,0,1,1.71-1.18,3.42,3.42,0,0,1,4.81,4c-1,4.48-7.19,7.36-11.28,5.27a11.85,11.85,0,0,1-6.21-7.52c-.28-.93-.46-1.9-.7-2.92-1.5,2.16-1.25,6.42.51,9.95,1.51,3,2.64,4,7.8,6.59-1.09.52-2,1-3,1.43s-1.7.88-3,1.57l3.27,1.6,3.11,1.5c-5.08,1.25-7.79,4.38-9.09,8.85a9.87,9.87,0,0,0,.41,7.5c.25-1,.45-2.09.76-3.11a11.8,11.8,0,0,1,6.57-7.53c4-1.84,10.1,1.4,10.91,5.68a3.4,3.4,0,0,1-4.76,3.82,13.12,13.12,0,0,1-1.76-1.17c-3.31,1.47-4.52,4.27-3.27,7.47a9.38,9.38,0,0,0,10.12,5.63,13.19,13.19,0,0,0,8.93-5.14c.32-.42.65-.83,1-1.33,1.06,5.83-4.95,38.64-10.33,56.79a281.27,281.27,0,0,1-22,53.26c-8.88,16.51-25.13,40.27-32.9,48,0-.95,0-1.69,0-2.42a13.09,13.09,0,0,0-3-9.57,9,9,0,0,0-8.93-3.36c-4.21.69-6.05,3.5-5.13,8a19.51,19.51,0,0,1,2.22.56,3.4,3.4,0,0,1,.37,6.31,8.38,8.38,0,0,1-11.65-4.89,12,12,0,0,1,1.46-9.88c.4-.65.85-1.27,1.41-2.1-6.4,2.13-9.05,10.13-5.95,17.79l-6.36-2.12,2.06,6.6a11.78,11.78,0,0,0-11.94-.4c-2.59,1.27-4.79,3-5.71,6,.64-.43,1.27-.87,1.93-1.27A12.38,12.38,0,0,1,483.57,612c5.38,1.55,6,8.61,4.27,11.72a3.4,3.4,0,0,1-6.2-.56c-.22-.68-.33-1.39-.49-2.07-3.75-1.22-6.49.09-7.73,3.67a9.24,9.24,0,0,0,2.85,10c3.14,2.71,6.72,3.6,11.93,3-2.34,4.27-30.31,23.66-47.33,32.83a283.46,283.46,0,0,1-53.51,22.17,280.54,280.54,0,0,1-57.59,10.83c1-.83,1.6-1.28,2.16-1.75a12.76,12.76,0,0,0,4.83-10.71,8.74,8.74,0,0,0-5.08-7.78c-3.25-1.69-6.33-.55-8.12,2.93a16.9,16.9,0,0,1,1.05,1.48,3.23,3.23,0,0,1-.33,4,3.54,3.54,0,0,1-4,.93,8.31,8.31,0,0,1-4-12.51,12.17,12.17,0,0,1,8-5.18c.55-.1,1.09-.3,1.94-.55-7-2.4-13.58,1-16.75,8.56l-3-6.14-3.08,6c-3.26-7.54-10.54-11.19-16.83-8.24.84.19,1.4.32,2,.43a12.13,12.13,0,0,1,8.83,6.55c2.09,4-.94,10.3-5.37,11.26a3.28,3.28,0,0,1-3.41-1.16,3.21,3.21,0,0,1-.32-3.79,13.64,13.64,0,0,1,1.1-1.49c-1.53-3.46-4.65-4.7-7.95-3.21A9.37,9.37,0,0,0,276,693a13.5,13.5,0,0,0,6.35,10c-4.92,1.13-36.19-3.9-56.74-10.18a289.48,289.48,0,0,1-53.27-22c-16.5-8.89-41.54-26-48-33,.81.11,1.35.2,1.88.25a13.06,13.06,0,0,0,10.74-3.5,8.85,8.85,0,0,0,2.65-9.39c-1.07-3.82-4.06-5.35-8-4.06a14.73,14.73,0,0,1-.26,1.8,3.39,3.39,0,0,1-6.4.56A8.3,8.3,0,0,1,131,611.56a12.11,12.11,0,0,1,9,2l1.59,1.11c-.64-5.87-10.2-9.24-17.57-6l2.13-6.52-6.64,2.25a12,12,0,0,0,.12-12.47,9.65,9.65,0,0,0-5.89-5.18c.31.47.6,1,.93,1.42a12.19,12.19,0,0,1,2,9.54A8.29,8.29,0,0,1,105,603.49a3.26,3.26,0,0,1-1.89-3.31,3.13,3.13,0,0,1,2.38-3,19.66,19.66,0,0,1,2-.42c1.2-3.89-.5-7.13-4.25-8a9.14,9.14,0,0,0-9.58,3,13,13,0,0,0-3.18,10.31c.06.52.1,1,.16,1.66-8.06-5.61-33.19-45.62-43.37-69a267.37,267.37,0,0,1-21.89-88.37c.5.6,1,1.22,1.5,1.79A13,13,0,0,0,37,452.54a9,9,0,0,0,7.81-4.62C46.67,445,45.73,440.42,42.08,439.18Z" transform="translate(0 -116.16)"/></g><g id="color-2"><path d="M81.22,216.53a24.57,24.57,0,0,1,2.26,2.4c1.11,1.6,1,2.33-.26,3.81-7,7.86-13.57,16-19.71,24.52-.32.44-.61,1.05-1,1.21-2.53.93-3.61,3.2-5,5.2-1.87,2.77-3.71,5.56-5.49,8.4-1,1.56-2.37,3-1.9,5.16.1.48-.48,1.13-.81,1.67a300.74,300.74,0,0,0-16.7,32.24c-.29.66-.52,1.52-1.06,1.85-1.88,1.15-2.46,3.06-3.19,4.89-1.56,3.95-3.07,7.92-4.57,11.89a4.82,4.82,0,0,0-.52,2.34c.42,2.19-.42,4.09-1.07,6a312.27,312.27,0,0,0-8.55,31.35,4.24,4.24,0,0,1-.67,2c-1.49,1.45-1.73,3.33-2.06,5.19-.72,4.09-1.47,8.18-2,12.29a21.73,21.73,0,0,0,.24,4.24,17.66,17.66,0,0,1,.14,2.4c-.56,6.75-1.2,13.49-1.72,20.25a2.22,2.22,0,0,1-1.6,2.2,4.92,4.92,0,0,1-4.25,0,301.43,301.43,0,0,1,16.49-85.72A304.64,304.64,0,0,1,81.22,216.53Z" transform="translate(0 -116.16)"/><path d="M605.69,437.06a5.58,5.58,0,0,1,5-1.06c1.29,7.71-3.07,43.2-10.63,69.27a311.25,311.25,0,0,1-27,65.18A303.06,303.06,0,0,1,532,627.52c-2.19-.8-2.92-2.47-3.49-4.44,1.84-2.13,3.73-4.19,5.48-6.37,5-6.28,10-12.63,15-18.91a29.47,29.47,0,0,1,2.7-2.53,13.58,13.58,0,0,0,2.08-2.07c2.73-4.05,5.39-8.14,8-12.23.68-1.05,1.37-2.08,1-3.51-.12-.48.36-1.16.67-1.68a308.5,308.5,0,0,0,16.93-32.71c.26-.57.46-1.33.93-1.62,2.05-1.25,2.63-3.38,3.42-5.37,1.54-3.86,3-7.75,4.47-11.64a4.4,4.4,0,0,0,.51-2.33c-.52-2,.29-3.71.88-5.48a295.34,295.34,0,0,0,8.49-31.07,7.36,7.36,0,0,1,1.56-3.67,5,5,0,0,0,1-2.45c.9-5.07,1.74-10.14,2.58-15.22a3.09,3.09,0,0,0,0-1.86c-1-1.73-.54-3.48-.37-5.27C604.48,450.45,605.07,443.8,605.69,437.06Z" transform="translate(0 -116.16)"/><path d="M80.92,627.51A304.82,304.82,0,0,1,1.65,435.91a18.92,18.92,0,0,1,3.14,0c2.16.4,2.55,1,2.74,3.26.49,5.94,1,11.87,1.56,17.81.14,1.69.48,3.36-.28,5.06a5,5,0,0,0,0,2.66c.8,4.9,1.65,9.79,2.52,14.68a4,4,0,0,0,.65,2c1.61,1.61,1.76,3.69,2.21,5.7a296,296,0,0,0,8.43,30.25,8.52,8.52,0,0,1,.68,4.48,5.27,5.27,0,0,0,.48,2.61c1.76,4.65,3.57,9.27,5.39,13.89a3.89,3.89,0,0,0,1.09,1.83c1.84,1.17,2.4,3.11,3.21,4.89A317.59,317.59,0,0,0,48.9,574.9,19.25,19.25,0,0,1,50,578.14a13.27,13.27,0,0,0,1.11,2.72q4,6.17,8,12.24c.44.67.94,1.52,1.61,1.78,2,.81,2.93,2.6,4.16,4.13,5.9,7.32,11.78,14.65,17.74,21.92C84.93,623.73,84.59,625.49,80.92,627.51Z" transform="translate(0 -116.16)"/><path d="M531.88,216.76a303.89,303.89,0,0,1,61,100.5,299.33,299.33,0,0,1,18.28,90.84c-2.71.68-2.88.65-5.56-.77-.18-2.07-.35-4.21-.55-6.36-.47-5.13-1-10.25-1.45-15.37,0-.45-.29-1-.13-1.33,1.66-3.5.13-6.92-.25-10.34-.28-2.51-.91-5-1.32-7.47a8.93,8.93,0,0,0-2-4.94,5.46,5.46,0,0,1-.84-2.52,306.55,306.55,0,0,0-9.06-32.89,16.75,16.75,0,0,1-.35-3.12,12.64,12.64,0,0,0-.47-2.9c-1.75-4.65-3.57-9.27-5.4-13.89a4.74,4.74,0,0,0-1.23-2.06c-1.65-1.19-2.3-2.95-3.07-4.67a299.2,299.2,0,0,0-15.35-29.59,6,6,0,0,1-1.29-3.72,5.21,5.21,0,0,0-1.13-2.69c-2.64-4.11-5.33-8.18-8-12.24-.45-.67-1-1.51-1.63-1.77-1.94-.75-2.81-2.45-4-3.91-5.89-7.33-11.68-14.74-17.78-21.89C528.27,221.23,527.68,219.9,531.88,216.76Z" transform="translate(0 -116.16)"/><path d="M100.9,196.9a305.18,305.18,0,0,1,191.67-79.23,22.57,22.57,0,0,1,0,3.62,2.5,2.5,0,0,1-2.6,2.22c-6.76.53-13.51,1.19-20.26,1.79a3,3,0,0,1-1.35,0c-3.23-1.51-6.41-.16-9.58.21a82,82,0,0,0-8.81,1.56,25.06,25.06,0,0,0-3.91,1.66,11.54,11.54,0,0,1-2.24.87,307.07,307.07,0,0,0-33.7,9.26,14.81,14.81,0,0,1-2.85.3,12.45,12.45,0,0,0-2.9.41c-4.74,1.77-9.45,3.63-14.15,5.49a3.82,3.82,0,0,0-1.83,1.1c-1.2,1.79-3.09,2.39-4.89,3.2a315.57,315.57,0,0,0-29.84,15.47A16.94,16.94,0,0,1,150.4,166a11.34,11.34,0,0,0-2.5,1c-4.27,2.73-8.49,5.52-12.71,8.32-.59.39-1.34.85-1.57,1.45-.81,2.12-2.74,3-4.33,4.31-7.19,5.78-14.39,11.54-21.52,17.39C104.74,200.86,103.26,200.67,100.9,196.9Z" transform="translate(0 -116.16)"/><path d="M320.1,726.76c.09-1.47.08-2.52.25-3.54.25-1.52,1.09-2.18,2.78-2.31,6.76-.51,13.5-1.22,20.26-1.84a3,3,0,0,1,1.6.06c1.73,1,3.52.62,5.28.33,4.38-.69,8.74-1.45,13.11-2.22a4.6,4.6,0,0,0,2.28-.74c1.87-1.73,4.24-1.87,6.51-2.39a308.78,308.78,0,0,0,30.26-8.51,5.58,5.58,0,0,1,3.4-.44,5.15,5.15,0,0,0,2.88-.42c4.66-1.74,9.28-3.56,13.9-5.4a4.45,4.45,0,0,0,2.05-1.25c1.11-1.61,2.79-2.21,4.43-3a298.32,298.32,0,0,0,30.08-15.59,6.29,6.29,0,0,1,3.5-1.22,4.79,4.79,0,0,0,2.47-.94c4.19-2.69,8.34-5.42,12.49-8.17.59-.39,1.34-.82,1.59-1.42.95-2.24,3-3.26,4.75-4.66,7-5.66,14.11-11.32,21.09-17.06,3-2.46,4-2.46,6.59.58a5.75,5.75,0,0,1,.43.73,305.45,305.45,0,0,1-192,79.37Z" transform="translate(0 -116.16)"/><path d="M100.68,647.26a20.7,20.7,0,0,1,2.25-2.2c1.76-1.26,2.31-1.13,4,.24q12.14,9.8,24.31,19.54c.5.39,1.22.72,1.41,1.23.84,2.36,2.9,3.39,4.76,4.63,3.31,2.21,6.66,4.36,10,6.52a5.15,5.15,0,0,0,3.52,1.14,3.57,3.57,0,0,1,2,.71A305.25,305.25,0,0,0,185.65,696c.49.22,1.16.38,1.4.77,1.28,2.15,3.53,2.73,5.6,3.56,3.44,1.39,6.9,2.71,10.36,4,1.6.6,3.16,1.32,5,.71.5-.18,1.21.16,1.8.36A302.77,302.77,0,0,0,244,714.79a3.49,3.49,0,0,1,1.75.66c1.45,1.48,3.31,1.73,5.2,2,4.46.71,8.92,1.46,13.38,2.18a3,3,0,0,0,1.59.07c2.57-1.34,5.15-.32,7.71-.14,5.14.38,10.28.86,15.41,1.32,3,.27,3.69,1,3.72,4a9.52,9.52,0,0,1-.16,1.32c-8.5,1.13-43.87-3.3-69.41-10.72a312.58,312.58,0,0,1-65.24-27A303.47,303.47,0,0,1,100.68,647.26Z" transform="translate(0 -116.16)"/><path d="M512.66,197.51c-1.09.75-1.89,1.33-2.71,1.87-1.79,1.18-2.36,1.15-4-.33a304.35,304.35,0,0,0-24.32-19.54c-.51-.36-1.21-.72-1.39-1.23-.76-2.17-2.61-3.18-4.33-4.32q-5.2-3.44-10.46-6.8a4.88,4.88,0,0,0-2.43-1.08c-1.9.12-3.26-.91-4.71-1.77a311.8,311.8,0,0,0-30.37-15.62,21.05,21.05,0,0,1-2.82-2,15.82,15.82,0,0,0-2.69-1.74c-4.09-1.68-8.22-3.29-12.36-4.86-1.66-.64-3.31-1.45-5.24-.75-.48.18-1.21-.2-1.8-.4a293.06,293.06,0,0,0-34-9.33,2.91,2.91,0,0,1-1.29-.38c-3-2.65-6.9-2.4-10.46-3.21-2.19-.5-4.45-.79-6.69-1.08-1.86-.24-3.72-.72-5.58.26a4.23,4.23,0,0,1-2.13,0c-6.31-.57-12.61-1.19-18.91-1.73-3.55-.31-4.65-2.09-3.32-5.86a305.33,305.33,0,0,1,192,79.84Z" transform="translate(0 -116.16)"/><path d="M23.6,400.75c-1.31-3.44-.63-6.91-.17-10.91l-4.59,2.68c.55-4.25,1-8.08,1.55-11.9.26-1.95.34-3.95,1.89-5.5a3.59,3.59,0,0,0,.54-1.77c.86-4.25,1.71-8.5,2.52-12.76a5,5,0,0,0,.14-2.65c-.65-1.6-.18-3,.18-4.48a294.79,294.79,0,0,1,9.61-31.32,6.9,6.9,0,0,1,2.24-3.6,4.84,4.84,0,0,0,1.26-2q2.58-6,5.08-12a4.9,4.9,0,0,0,.66-2.31c-.29-2,.6-3.5,1.38-5.12a283.92,283.92,0,0,1,16.44-29.6c.39-.6.74-1.44,1.31-1.68,2.27-1,3.23-3.06,4.51-4.89,1.93-2.73,3.9-5.43,5.74-8.22a20,20,0,0,0,1.5-3.41c.13-.32.09-.75.28-1,2.06-2.7,4.15-5.36,6.5-8.38.44,1.91.75,3.28,1.18,5.15,1.37-1.64,2.41-3.06,3.62-4.3a22.63,22.63,0,0,1,4.18-3.34Q31.69,308.57,23.6,400.75Z" transform="translate(0 -116.16)"/><path d="M594.07,392.59l-4.58-2.77c.4,3.94,1.11,7.4-.14,11.49-.25-1.34-.47-2.12-.54-2.9a272.19,272.19,0,0,0-8.64-49.57,282,282,0,0,0-56.51-108.55,11.52,11.52,0,0,1-1.66-2.44,8.88,8.88,0,0,1,3.92,2.9c1.15,1.25,2.17,2.62,3.51,4.26.48-1.71.88-3.1,1.41-5,2.29,3,4.34,5.57,6.35,8.22.25.32.23.84.39,1.25a17.88,17.88,0,0,0,1.38,3.16c2.36,3.53,4.83,7,7.27,10.47.41.58.79,1.38,1.38,1.62,2.12.88,3,2.78,4.09,4.53a273.2,273.2,0,0,1,16,29.25,15.31,15.31,0,0,1,.7,3.06,18.25,18.25,0,0,0,.7,2.85c1.63,4,3.32,8,5,12a4.37,4.37,0,0,0,1.08,1.84c1.58,1.16,2.11,2.84,2.73,4.54a291.26,291.26,0,0,1,9.39,30.83,6.69,6.69,0,0,1,.12,4.22,4.2,4.2,0,0,0,.09,2.1q1.21,6.52,2.52,13a5,5,0,0,0,.74,2.27c1.38,1.55,1.53,3.41,1.77,5.28C593,384.42,593.51,388.26,594.07,392.59Z" transform="translate(0 -116.16)"/><path d="M18.81,451.81l4.55,2.72c-.3-4-1.19-7.53.31-11A287.5,287.5,0,0,0,91,606.59c-3.28-1.42-5.16-4.28-7.61-7.36-.43,1.8-.75,3.14-1.14,4.75a10,10,0,0,1-1.38-1.17c-1.53-1.9-3-3.83-4.51-5.76-.33-.43-.85-.9-.85-1.35,0-2.59-1.82-4.26-3.13-6.17-1.53-2.24-3.09-4.46-4.64-6.69-1.13-1.61-2-3.42-4-4.22-.57-.23-.94-1.06-1.33-1.66a276.92,276.92,0,0,1-17.14-31.07,14.07,14.07,0,0,1-.68-3.08,15.74,15.74,0,0,0-.6-2.61c-1.72-4.18-3.49-8.33-5.27-12.48-.24-.58-.44-1.33-.91-1.62-1.78-1.14-2.22-3-2.86-4.77a278.46,278.46,0,0,1-9.52-31.62c-.15-.61-.48-1.35-.27-1.83.92-2,.2-3.9-.18-5.83-.63-3.19-1.27-6.38-1.86-9.57-.32-1.69-.49-3.41-1.86-4.68a1.78,1.78,0,0,1-.42-1C20.16,462,19.52,457.18,18.81,451.81Z" transform="translate(0 -116.16)"/><path d="M530.84,604.35l-1.42-5c-2.33,2.92-4.24,5.67-7.41,7.17,5.14-6.74,10.5-13.34,15.37-20.27s9.54-14.07,13.81-21.4,8.31-15,11.94-22.8,6.86-15.55,9.74-23.52,5.46-16.27,7.64-24.56,3.91-16.52,5.36-24.87,2.34-16.93,3.54-25.91c1.12,3.92.65,7.34,0,10.95,1.8-.1,2.78-1.45,4.47-2.18-.16,1.9-.26,3.54-.45,5.17-.32,2.6-.69,5.19-1.07,7.78a7.91,7.91,0,0,1-1.47,4,7.45,7.45,0,0,0-1,3c-.77,3.71-1.49,7.44-2.19,11.16-.28,1.49-.73,2.95-.08,4.52a4.2,4.2,0,0,1-.15,2.36,288,288,0,0,1-10.18,33.13c-.25.66-.46,1.53-1,1.88-1.73,1.17-2.21,3-2.93,4.75q-1.87,4.5-3.82,9c-.68,1.57-1.48,3.06-1.12,4.92a4,4,0,0,1-.64,2,281.21,281.21,0,0,1-17.29,31.3,15.26,15.26,0,0,1-2.25,2.22,17.64,17.64,0,0,0-2,2.12c-2.16,3-4.25,6.07-6.35,9.12-1.07,1.54-2.5,2.91-2.36,5a1.35,1.35,0,0,1-.33.72Z" transform="translate(0 -116.16)"/><path d="M276.65,134.94c-.93,1.64-1.63,2.85-2.51,4.39,2.06-.19,3.78-.45,5.51-.49a19.26,19.26,0,0,1,5.12.58q-92.16,8.37-162.95,67.81l-.39-.46c1.09-1.25,2.11-2.58,3.3-3.73s2.62-2.18,4-3.36c-1.08-1.38-2.88-.77-4.53-1.75l8.16-6.35c5.24-1,8.56-5.15,12.88-7.66,1.84-1.07,3.79-2.12,4.67-4.34.23-.57,1.07-.92,1.68-1.31a276.08,276.08,0,0,1,31.1-17.09,15.1,15.1,0,0,1,3.06-.64,18.18,18.18,0,0,0,2.86-.74c4-1.64,8-3.35,12-5.05.65-.29,1.49-.52,1.85-1,1.13-1.63,2.84-2.13,4.53-2.74a274.71,274.71,0,0,1,31.37-9.45,16.82,16.82,0,0,1,3.41-.06,15.67,15.67,0,0,0,2.66-.1c4.36-.8,8.7-1.67,13-2.52.44-.09,1-.07,1.3-.33,2.92-2.48,6.61-2.08,10-2.71C271.25,135.35,273.76,135.25,276.65,134.94Z" transform="translate(0 -116.16)"/><path d="M284.88,704.87c-3.4,1-6.81.71-10.82,0,.92,1.62,1.63,2.86,2.58,4.55-2.76-.28-5.13-.5-7.49-.78-1.8-.21-3.58-.51-5.37-.77a7.12,7.12,0,0,1-4.21-1.59,4.79,4.79,0,0,0-2.27-.77q-6.37-1.28-12.77-2.48c-.7-.14-1.55-.46-2.11-.21-1.94.88-3.74.18-5.55-.27a280.39,280.39,0,0,1-31-9.62,15.52,15.52,0,0,1-2.88-1.83,13.42,13.42,0,0,0-2-1.35c-4.23-1.83-8.48-3.6-12.73-5.38-.58-.24-1.26-.64-1.79-.52-2.29.53-4-.77-5.83-1.64a270.6,270.6,0,0,1-28.88-16.08,16.15,16.15,0,0,1-2.41-2.41,14.29,14.29,0,0,0-1.69-1.7c-3.69-2.61-7.41-5.18-11.13-7.75-.44-.31-.91-.78-1.38-.81-3.07-.21-4.93-2.46-7.16-4.08-1.21-.87-2.34-1.86-3.84-3.06l5.08-1.28c-3-2.45-5.94-4.32-7.38-7.63Q192.78,696.73,284.88,704.87Z" transform="translate(0 -116.16)"/><path d="M491.18,637.38c-1.66,3.14-4.33,5.34-7.67,7.6l5.13,1.32c-1,.85-1.65,1.48-2.37,2.05-1.55,1.24-3.09,2.51-4.72,3.64a15.71,15.71,0,0,1-2.64,1.18,14.12,14.12,0,0,0-2.44,1.08c-3.74,2.54-7.44,5.13-11.15,7.73-.51.36-1.19.72-1.38,1.24-.75,2-2.49,2.77-4.08,3.77a285.42,285.42,0,0,1-29.47,16.15,5.36,5.36,0,0,1-3.34.74,5.88,5.88,0,0,0-2.83.71c-4,1.65-8,3.35-12,5.06a4.34,4.34,0,0,0-1.85,1.05c-1.06,1.56-2.68,2.06-4.28,2.64A290.44,290.44,0,0,1,374.22,703c-.69.16-1.55.48-2.1.23-1.84-.84-3.56-.19-5.31.14-3.73.7-7.45,1.43-11.18,2.15a3.74,3.74,0,0,0-1.56.4c-2.69,2.28-6.06,2.07-9.21,2.57-2.73.44-5.5.65-8.67,1l2.6-4.44c-3.85.39-7.26.91-10.68-.19Q420.26,696.66,491.18,637.38Z" transform="translate(0 -116.16)"/><path d="M483.57,199.38c3.16,2.3,5.76,4.23,7.3,7.26-2.19-1.1-3.91-2.86-5.82-4.34s-3.82-3-5.75-4.53-4-3.06-6.08-4.55-4-2.84-6-4.23-4.2-2.83-6.32-4.21-4.1-2.64-6.18-3.92-4.33-2.62-6.53-3.88-4.24-2.41-6.39-3.57-4.46-2.39-6.71-3.54-4.36-2.18-6.56-3.23-4.58-2.15-6.89-3.18-4.64-2-7-3-4.53-1.82-6.8-2.69-4.74-1.78-7.12-2.63-4.61-1.6-6.93-2.35-4.82-1.54-7.24-2.25-4.7-1.32-7-1.95-4.89-1.29-7.35-1.89-4.75-1.11-7.14-1.6-5-1-7.45-1.43-4.8-.87-7.21-1.25-5-.75-7.52-1.08-4.84-.56-7.27-.82-4.94-.5-7.4-1c3.3-1.08,6.62-.73,10.54,0-.89-1.67-1.57-2.93-2.44-4.58,2.75.28,5.21.5,7.67.8,1.88.23,3.75.59,5.63.83a6.19,6.19,0,0,1,3.46,1.31,5.74,5.74,0,0,0,2.48.95c4.25.87,8.51,1.67,12.77,2.48.71.14,1.54.47,2.12.23,2.13-.89,4.07-.09,6.06.41a285.41,285.41,0,0,1,30.28,9.33,7.09,7.09,0,0,1,3.37,2.1,5.83,5.83,0,0,0,2.26,1.39c3.89,1.68,7.79,3.37,11.74,4.93a21.6,21.6,0,0,0,3.63.72,9.32,9.32,0,0,1,2,.56,279.83,279.83,0,0,1,31.8,17.49c.52.34,1.24.68,1.43,1.19.73,2,2.45,2.81,4,3.89,3,2.06,5.89,4.19,8.9,6.19a19.56,19.56,0,0,0,3.4,1.49c.24.1.58,0,.77.15,2.77,2.09,5.53,4.2,8.71,6.62Z" transform="translate(0 -116.16)"/><path d="M244.66,521.59v-4.5c1.9-.57,119.73-.75,123.44-.17v4.67Z" transform="translate(0 -116.16)"/><path d="M368.14,475.42v4.47c-1.92.57-120.15.72-123.43.14v-4.61Z" transform="translate(0 -116.16)"/><path d="M308.4,727l3.91-5.72,6.51,5.45c-2,.1-3.56.22-5.16.26S310.29,727,308.4,727Z" transform="translate(0 -116.16)"/><path d="M92,639.09l7-1.3.68,8.59Z" transform="translate(0 -116.16)"/><path d="M99.05,206.59l-7-1.26L99.72,198C99.48,201.11,99.27,203.76,99.05,206.59Z" transform="translate(0 -116.16)"/><path d="M294,726.83l6.63-5.59c1.28,1.86,2.53,3.68,3.83,5.59Z" transform="translate(0 -116.16)"/><path d="M611.46,420.21l-5.74-3.86,5.61-6.63C611.45,413.42,611.5,416.67,611.46,420.21Z" transform="translate(0 -116.16)"/><path d="M318.69,117.78l-6.36,5.36-4-5.74A58.19,58.19,0,0,1,318.69,117.78Z" transform="translate(0 -116.16)"/><path d="M605.61,428.1l5.74-3.85a49.74,49.74,0,0,1-.38,10.08c-.83-1.06-1.63-2.16-2.51-3.18S606.62,429.18,605.61,428.1Z" transform="translate(0 -116.16)"/><path d="M513.59,198.33l7.27,7-6.9,1.29c-.27-2.6-.55-5.27-.82-8Z" transform="translate(0 -116.16)"/><path d="M530.87,215.66l-8.61-.81c.38-2.15.75-4.3,1.21-6.93C526,210.54,528.28,212.94,530.87,215.66Z" transform="translate(0 -116.16)"/><path d="M513.93,637.81l6.92,1.25-7.66,7.38C513.47,643.19,513.7,640.48,513.93,637.81Z" transform="translate(0 -116.16)"/><path d="M530.93,628.72l-7.45,7.73c-.45-2.54-.84-4.7-1.23-6.91Z" transform="translate(0 -116.16)"/><path d="M89.35,208l1.3,6.84-8.64.87Z" transform="translate(0 -116.16)"/><path d="M294.6,117.57h9.75l-3.74,5.58-6-5Z" transform="translate(0 -116.16)"/><path d="M1.54,409.68l5.64,6.66c-1.83,1.25-3.7,2.51-5.64,3.82Z" transform="translate(0 -116.16)"/><path d="M89.28,636.36,82,628.73l8.62.81C90.23,631.7,89.79,633.84,89.28,636.36Z" transform="translate(0 -116.16)"/><path d="M1.65,424.31,7.18,428l-5.53,6.55Z" transform="translate(0 -116.16)"/></g><g id="color-3"><path d="M300.52,474.17H289.67c-.06-1.14-.13-2.2-.17-3.26a190.1,190.1,0,0,0-12.7-61.57,154.52,154.52,0,0,0-13.7-26.45c-8-12.71-15.6-25.65-22.3-39.09-5.94-11.92-10.88-24.25-13.54-37.36-4.56-22.49-2.18-44.32,7.53-65.11,5-10.61,12.05-19.94,19.7-28.8,8.74-10.12,18.81-18.82,29.4-26.88,8.19-6.23,15.31-13.23,19.93-23,.55,1,.92,1.62,1.28,2.28l1.35,2.54,2.3-4.67c.49.75.91,1.28,1.22,1.87a55.79,55.79,0,0,0,15.91,18.61,241.32,241.32,0,0,1,27,23.44,145.39,145.39,0,0,1,24,32.4c4.68,8.66,7.41,18,9.18,27.68,3.91,21.37.73,41.88-7.32,61.87-7,17.43-16.4,33.59-26.14,49.58Q346,389.09,340.09,400.4c-6.59,12.69-10.28,26.39-13.17,40.31a203,203,0,0,0-3.75,31.47c0,.61-.1,1.22-.16,2H312.32c0-1.39-.06-2.8,0-4.2a220.47,220.47,0,0,1,8.26-49.35c4.81-16.86,12.7-32.24,22-47a347.88,347.88,0,0,0,22.63-41.05c4.61-10.13,8.53-20.55,10.25-31.63,3.52-22.69.06-44.09-12.25-63.78a110.59,110.59,0,0,0-54.5-45.35,5.73,5.73,0,0,0-4.61,0c-26.12,10.26-45.5,28-58.71,52.63-4.26,7.94-6.63,16.59-8.11,25.47-3.21,19.3-.06,37.75,7.32,55.69,6.85,16.62,15.73,32.13,25.22,47.32A259.6,259.6,0,0,1,284,398.55c5.52,11.58,9,23.81,11.83,36.26a199.64,199.64,0,0,1,4.71,37.34C300.54,472.76,300.52,473.38,300.52,474.17Z" transform="translate(0 -116.16)"/><path d="M328.92,474.22h-4.64c0-2.6-.15-5.11,0-7.59,1.31-19.05,4.91-37.67,11.9-55.45,10.14-25.79,25.73-47.63,48.38-64.07a84.69,84.69,0,0,1,39.93-15.71,109.51,109.51,0,0,1,30.31,0q33.82,5.19,54.21,32.77c11.22,15.16,15.09,32.21,13.47,50.69-1.36,15.62-8.43,28.58-19.26,39.67a73.67,73.67,0,0,1-47.17,22.54,82.84,82.84,0,0,1-29.59-2.43,42.51,42.51,0,0,1-21.88-13.87c-.23-.27-.41-.57-.76-1.06.66-.27,1.18-.53,1.72-.71,2.15-.7,4.33-1.29,6.45-2.07a22.07,22.07,0,0,0,10.7-8.42c4.74-6.83,3.55-17-2.71-22.17a24,24,0,0,0-14.84-5.88,41.14,41.14,0,0,0-26.92,8.38c-14.39,10.88-22.37,25.49-24.77,43.26-.09.62-.17,1.23-.28,2h-9.41c.16-2.46.3-4.77.47-7.09,1.37-19,7.35-36.24,19.66-51,5.71-6.85,12-13.12,20.25-16.9,10.86-5,22.06-6.34,33.53-2.57,13.27,4.37,23.31,17.64,22.75,33.49a34.29,34.29,0,0,1-24.28,31.06c-.87.26-1.73.49-3,.85.78.71,1.3,1.26,1.9,1.71a42,42,0,0,0,17.12,7.16,76.79,76.79,0,0,0,44.75-4c10.34-4.21,18.78-11.11,26.08-19.45s12.45-18.08,14-29.19c2.78-19.88-1.36-38-14.24-53.92q-20-24.66-51.41-28.2c-16-1.77-31.8-.35-46.95,5.7-10.15,4.05-18.77,10.42-26.88,17.58-12.91,11.42-22.83,25-30.63,40.38-7.59,14.91-12.17,30.7-15.12,47.05a186.92,186.92,0,0,0-2.71,25.87C329.05,473.06,329,473.5,328.92,474.22Z" transform="translate(0 -116.16)"/><path d="M209.08,459.63a41.49,41.49,0,0,1-21.4,14.58c-19.26,5.53-38.43,4.75-56.38-4C110.42,460,95.84,443.73,91.05,420.3c-2.53-12.34-1.16-24.64,2.52-36.69a62.46,62.46,0,0,1,8.6-17.13c13.89-20.23,33.05-32.21,57.32-35.27,19.06-2.4,37.75-.48,55.4,7.9,9.76,4.63,18.07,11.29,26,18.51,13.22,12.06,23,26.55,30.89,42.54,6.75,13.76,10.87,28.3,13.8,43.24A198.77,198.77,0,0,1,288.71,470c.07,1.08.07,2.17.07,3.25a3.72,3.72,0,0,1-.26.89h-4.68c-.11-1.73-.23-3.34-.31-4.95a177.12,177.12,0,0,0-12.07-57.32c-9.65-24.15-24.36-44.67-45.52-60.25a80.5,80.5,0,0,0-39.17-15.37,106.1,106.1,0,0,0-27.06,0q-31.92,4.51-51.4,30.24c-11,14.48-14.61,30.82-12.92,48.56,1.31,13.78,7.6,25.27,17,35.2a68.61,68.61,0,0,0,43.2,21.66,77.31,77.31,0,0,0,30.89-2.58,37.52,37.52,0,0,0,11.55-5.87,15.94,15.94,0,0,1,1.62-.9l-.45-.63c-.74-.24-1.49-.51-2.24-.73a33.91,33.91,0,0,1,5.12-66.28c15-1.66,28.07,2.59,39.07,12.95,14.17,13.34,23,29.57,26,48.85.76,4.9,1.13,9.87,1.65,14.81.08.79,0,1.6,0,2.6h-9.12c-.42-2.43-.74-4.91-1.27-7.35-3.37-15.52-11.08-28.35-23.87-37.93a41,41,0,0,0-28-8.32,22.4,22.4,0,0,0-16,8.13c-4.15,4.89-4.5,13.45-.93,19.15a21.72,21.72,0,0,0,11.13,9.11C203.37,457.88,206.05,458.66,209.08,459.63Z" transform="translate(0 -116.16)"/><path d="M325.24,522.67h5.08c.24,1.88.52,3.82.73,5.76a116.66,116.66,0,0,0,6.22,26.88c3.64,10.1,8.56,19.56,16.47,27.11,6.62,6.31,14.32,10.82,23.37,12.47a48.88,48.88,0,0,0,25.64-2.39C412.57,589,424.56,576,423.61,561c-.84-13.27-12-24.91-25-25.67-1.4-.08-2.82.07-4.57.12.48,1,.75,1.62,1.08,2.22,7.86,14.19-2.06,30.93-18.27,30.53-12.26-.29-21.22-6.23-26.33-17.33-4-8.69-5.89-18-6.62-27.54a3.27,3.27,0,0,1,.15-.7h8.77c.61,4,1.14,8,1.82,11.85,1.33,7.73,5,14.08,11.47,18.66a18.64,18.64,0,0,0,12,3.51,12.42,12.42,0,0,0,11.81-11.64,15.48,15.48,0,0,0-3.06-11c-.27-.34-.47-.73-.85-1.32a24.75,24.75,0,0,1,13.79-2.39,32.66,32.66,0,0,1,25.12,47.74c-6,11.64-15.38,18.93-28.38,21.39a52.67,52.67,0,0,1-19.7.46A51,51,0,0,1,366,596.55a54.6,54.6,0,0,1-24.45-21.15c-8-12.41-12.21-26.13-14.65-40.5C326.21,530.92,325.8,526.88,325.24,522.67Z" transform="translate(0 -116.16)"/><path d="M282.55,522.61h4.73c-.07,1.45,0,2.85-.21,4.24a128.87,128.87,0,0,1-6.85,30.33c-3.84,10.52-9,20.34-17.1,28.33a52.43,52.43,0,0,1-23.93,13.8c-8.86,2.29-17.78,1.69-26.56-.73-13.77-3.81-22.69-12.91-27-26.23-6.35-19.67,7.56-40.17,28.16-42.06a25.17,25.17,0,0,1,13.06,2.48c-.43.63-.7,1.07-1,1.48-2.93,3.88-3.5,8.26-2.64,12.88.93,5,5.68,9.07,10.89,9.52a18.06,18.06,0,0,0,11.65-2.84A25.67,25.67,0,0,0,257.33,538c1-4.29,1.53-8.7,2.25-13.07.12-.69.16-1.4.26-2.27h8.81c.51,2.33-.11,4.62-.42,6.89a80.77,80.77,0,0,1-5.89,21.36,29,29,0,0,1-28.52,17.29,20.31,20.31,0,0,1-16.51-29.78c.45-.85.92-1.7,1.49-2.76a18.08,18.08,0,0,0-7.73.08c-16.94,3.56-26.62,22-19.68,37.92,5.09,11.67,13.93,18.87,26.67,21a56.55,56.55,0,0,0,16.22.48,37.91,37.91,0,0,0,12.31-4,50.76,50.76,0,0,0,20.46-18.5c7.3-11.4,11.26-24,13.64-37.15C281.44,531.32,281.91,527.1,282.55,522.61Z" transform="translate(0 -116.16)"/><path d="M306.47,675.16a8.44,8.44,0,0,1-.88-1.15c-5-9.56-11-18.46-17-27.41a98.11,98.11,0,0,1-13.42-29.19,72.1,72.1,0,0,1-.18-37.79c3.13-11.79,6.75-23.44,9.78-35.25,1.48-5.75,2.11-11.72,3.1-17.59.22-1.33.34-2.67.53-4.14h4.95c-.29,2.87-.5,5.63-.85,8.37a173.89,173.89,0,0,1-6.2,26.9c-2.68,9-5.54,18-7.3,27.2-3.1,16.22-1,31.87,7.53,46.33a40.31,40.31,0,0,0,17.82,16.14,4.32,4.32,0,0,0,4.07,0,40,40,0,0,0,17.43-15.41c7.85-12.74,10.23-26.66,8.92-41.39-.7-8-3.39-15.52-5.41-23.19-2.21-8.38-4.93-16.64-6.88-25.08-1.42-6.14-2-12.48-2.89-18.73a6.41,6.41,0,0,1,.07-1.17h4.75c.43,3.24.85,6.45,1.27,9.65,1.07,8.37,3.44,16.42,5.8,24.49,2.59,8.84,5.38,17.66,7.24,26.67,3.2,15.55,1.31,30.73-4.94,45.37a147.24,147.24,0,0,1-12.24,22c-4.87,7.51-9.42,15.22-14.11,22.84C307.14,674.11,306.85,674.55,306.47,675.16Z" transform="translate(0 -116.16)"/></g><g id="color-4"><path d="M369,515.81c-4.54-.14-8.67.46-12.73-.41a10.23,10.23,0,0,1-8.06-6.91c-1.21-3.76-1.9-7.68-2.78-11.54-.3-1.32-.47-2.66-.76-4-1-4.58-2.56-8.87-7.05-11.6.66-.07,1.31-.19,2-.2,2.53,0,5.06-.07,7.58,0,5.21.17,9.08,2.57,10.81,7.51a99.59,99.59,0,0,1,2.54,10.49c.56,2.46,1,4.94,1.62,7.39a12.83,12.83,0,0,0,6,8.33C368.35,515,368.48,515.23,369,515.81Z" transform="translate(0 -116.16)"/><path d="M306.68,481.32c3.84,0,7.73-.36,11.52.09a10,10,0,0,1,8.6,7c1.21,3.66,1.87,7.51,2.74,11.28.3,1.31.45,2.66.74,4,1.06,4.76,2.59,9.25,7.65,11.68-2.9.72-11.19.64-13.41-.07-3.45-1.11-6.21-3.18-7.34-6.66s-1.84-7.14-2.67-10.74c-.45-1.93-.74-3.89-1.16-5.83C312.41,487.73,310.62,484,306.68,481.32Z" transform="translate(0 -116.16)"/><path d="M244.45,481.23c3.6,0,7.22-.25,10.79.06a10.14,10.14,0,0,1,9.15,6.62,85.47,85.47,0,0,1,2.74,10.43c.62,2.62,1,5.3,1.67,7.93a13,13,0,0,0,6.06,8.6,6.78,6.78,0,0,1,.86,1c-4.64-.23-8.87.49-13-.52a10.19,10.19,0,0,1-7.66-6.64,96.68,96.68,0,0,1-2.47-9.39c-.49-2.1-.75-4.25-1.19-6.37-.95-4.63-2.62-8.82-7.18-11.22Z" transform="translate(0 -116.16)"/><path d="M275.48,481.28c3.77,0,7.57-.29,11.31.08a9.79,9.79,0,0,1,8.54,6.24,80.53,80.53,0,0,1,2.77,10.13c.42,1.65.63,3.36.95,5,.94,5.08,2.47,9.81,8,12.71a18.22,18.22,0,0,1-1.89.31c-2.71,0-5.42.06-8.13,0-5.47-.12-9.62-2.88-11.27-8.08-1.25-3.93-1.85-8.06-2.73-12.11-.25-1.14-.45-2.3-.71-3.44C281.32,487.8,279.55,483.94,275.48,481.28Z" transform="translate(0 -116.16)"/><path d="M426.41,149.08c1.1.44,1.93.72,2.73,1.08a329.43,329.43,0,0,1,31,16.12c2.55,1.49,3.55,3.42,3.14,6.24-.25,1.69-.46,3.39-.72,5.3a13,13,0,0,1-1.67-.75,281.28,281.28,0,0,0-31.12-17,5.51,5.51,0,0,1-3.3-5.15C426.31,153.17,426.41,151.36,426.41,149.08Z" transform="translate(0 -116.16)"/><path d="M33.11,302.22c.41-1,.71-1.84,1.07-2.64a291.26,291.26,0,0,1,16.19-30.92c1.81-3,3.21-3.66,6.7-3.16l4.77.69a11.5,11.5,0,0,1-.7,1.66,281.23,281.23,0,0,0-17,31.1,5.19,5.19,0,0,1-4.6,3.23C37.5,302.34,35.43,302.22,33.11,302.22Z" transform="translate(0 -116.16)"/><path d="M551,266.19c2.18-.29,4.12-.62,6.07-.8a4.85,4.85,0,0,1,5,2.48,308.76,308.76,0,0,1,17.26,33.06,10.35,10.35,0,0,1,.33,1.24c-2.36,0-4.58.16-6.76-.05a4.73,4.73,0,0,1-4-2.84,284.42,284.42,0,0,0-17.53-32A7.18,7.18,0,0,1,551,266.19Z" transform="translate(0 -116.16)"/><path d="M462.55,666.32c.28,2.4.57,4.45.75,6.51a4.68,4.68,0,0,1-2.47,4.74A302.35,302.35,0,0,1,428,694.68c-.4.17-.82.28-1.45.49,0-2.33-.14-4.46,0-6.56a5.07,5.07,0,0,1,3.15-4.38A278.93,278.93,0,0,0,461,667.12C461.41,666.89,461.81,666.71,462.55,666.32Z" transform="translate(0 -116.16)"/><path d="M61.92,578.15c-2.22.29-4.1.6-6,.78a4.86,4.86,0,0,1-5.06-2.38A295.65,295.65,0,0,1,33.4,543a4.21,4.21,0,0,1-.11-.86,33.08,33.08,0,0,1,7.11.19,4.57,4.57,0,0,1,3.53,2.66,291.72,291.72,0,0,0,17.52,32A7.32,7.32,0,0,1,61.92,578.15Z" transform="translate(0 -116.16)"/><path d="M550.8,578.11c.57-1,.94-1.68,1.36-2.35a265.64,265.64,0,0,0,16.19-29.68,6.15,6.15,0,0,1,6.33-4c1.59,0,3.19,0,5,0-.39,1-.63,1.78-1,2.5a330.58,330.58,0,0,1-16.26,31.18,5.76,5.76,0,0,1-6.52,3.11C554.39,578.6,552.79,578.39,550.8,578.11Z" transform="translate(0 -116.16)"/><path d="M150.34,177.81c-.32-2.21-.72-4.16-.85-6.12a4.8,4.8,0,0,1,2.35-4.82,301.16,301.16,0,0,1,33.34-17.36,5.67,5.67,0,0,1,1.06-.26c0,2.44.14,4.76-.05,7.06a4.25,4.25,0,0,1-2.6,3.55,302.75,302.75,0,0,0-32.51,17.76A3.69,3.69,0,0,1,150.34,177.81Z" transform="translate(0 -116.16)"/><path d="M150.38,666.36c.89.5,1.59.86,2.25,1.27a269.78,269.78,0,0,0,29.93,16.3,5.79,5.79,0,0,1,3.81,5.88c0,1.7,0,3.4,0,5.3a16.15,16.15,0,0,1-1.85-.6,310.88,310.88,0,0,1-32.14-16.73,5.29,5.29,0,0,1-2.8-5.87C149.82,670.14,150.08,668.37,150.38,666.36Z" transform="translate(0 -116.16)"/><path d="M14.18,360.53c1.16-4.84,2-9.17,3.25-13.4,2.13-7.46,4.5-14.84,6.68-22.29.84-2.88,2.74-4,5.57-4.17,1.69-.08,3.38-.25,5.29-.4-.3,1-.51,1.74-.78,2.48a272.51,272.51,0,0,0-9.58,31.85A5.64,5.64,0,0,1,20,359.25C18.25,359.66,16.5,360,14.18,360.53Z" transform="translate(0 -116.16)"/><path d="M244.85,714.39c-8.57-2.28-16.58-4.35-24.56-6.57-3.82-1.06-7.53-2.48-11.34-3.59-2.75-.81-3.92-2.7-4.13-5.36-.13-1.7-.19-3.4-.29-5.35a17.55,17.55,0,0,1,1.79.43,282.91,282.91,0,0,0,32.87,9.86,5.13,5.13,0,0,1,4.08,3.87C243.83,709.66,244.22,711.68,244.85,714.39Z" transform="translate(0 -116.16)"/><path d="M408.44,693.53c-.24,2.39-.35,4.71-.73,7-.32,2-1.73,3.06-3.62,3.63-7.35,2.19-14.66,4.51-22,6.61-4.08,1.16-8.25,2-12.38,3-.41.1-.84.13-1.55.24.55-2.37.94-4.48,1.54-6.52a4.86,4.86,0,0,1,3.72-3.57,282.79,282.79,0,0,0,33.95-10.24A6,6,0,0,1,408.44,693.53Z" transform="translate(0 -116.16)"/><path d="M34.86,524c-2.22-.17-4.3-.22-6.33-.51a4.63,4.63,0,0,1-4.08-3.11,291.9,291.9,0,0,1-9.86-35.15c-.07-.34-.07-.69-.13-1.28a26.23,26.23,0,0,1,7.12,1.63A4.62,4.62,0,0,1,24.43,489,277.91,277.91,0,0,0,34.6,522.65,9.39,9.39,0,0,1,34.86,524Z" transform="translate(0 -116.16)"/><path d="M408.41,151c-5.15-1.74-9.81-3.46-14.56-4.88Q384,143.14,374,140.61a5.76,5.76,0,0,1-4.58-4.42c-.48-1.82-.81-3.68-1.27-5.81,1.11.18,2.06.28,3,.49a334.66,334.66,0,0,1,32.6,9.16,5.54,5.54,0,0,1,4.26,5.53C408.06,147.27,408.25,149,408.41,151Z" transform="translate(0 -116.16)"/><path d="M204.53,150.74c.11-1.94.14-3.74.32-5.52a5.47,5.47,0,0,1,4.07-5.13,326.72,326.72,0,0,1,34.45-9.56c.34-.07.68-.08,1.36-.16-.55,2.36-.94,4.55-1.59,6.66a4.72,4.72,0,0,1-3.58,3.37,289.2,289.2,0,0,0-34.22,10.33A3.16,3.16,0,0,1,204.53,150.74Z" transform="translate(0 -116.16)"/><path d="M598.27,360.46c-2.1-.46-4-.79-5.79-1.3a5.14,5.14,0,0,1-4.05-3.91A298.08,298.08,0,0,0,578.07,321a5.2,5.2,0,0,1-.11-.75c2.26.18,4.49.23,6.67.56a4.5,4.5,0,0,1,3.8,3.09,300.63,300.63,0,0,1,9.93,35.45A5,5,0,0,1,598.27,360.46Z" transform="translate(0 -116.16)"/><path d="M577.93,524.06c2.06-6.3,4.16-12.35,6-18.48,1.54-5.09,2.95-10.24,4.15-15.42.71-3.06,2.37-4.72,5.38-5.25,1.57-.27,3.12-.65,5-1.05-.27,1.46-.43,2.59-.68,3.7a296.27,296.27,0,0,1-9,31.76c-1.13,3.25-2.26,4.1-5.71,4.33C581.43,523.76,579.81,523.91,577.93,524.06Z" transform="translate(0 -116.16)"/><path d="M528.32,621.82l-3.91-3.23c.05-.09.1-.4.28-.52,3.76-2.53,5.29-6.29,5.74-10.58a5.67,5.67,0,0,1,1.3-3.16c1.94-2.38,3.87-4.77,5.68-7.25a5.31,5.31,0,0,1,5.69-2.18c1.86.32,3.7.73,5.94,1.18A287.8,287.8,0,0,1,528.32,621.82Z" transform="translate(0 -116.16)"/><path d="M524.17,225.91l4.14-3.42a295,295,0,0,1,20.74,25.73c-2.32.47-4.22.93-6.15,1.22a5.1,5.1,0,0,1-5.44-2.15,42.94,42.94,0,0,0-3-3.85c-2.39-2.74-4.28-5.56-4.64-9.44C529.52,230.55,527.27,227.92,524.17,225.91Z" transform="translate(0 -116.16)"/><path d="M63.86,248.23A283,283,0,0,1,84.53,222.5l4,3.26a2.81,2.81,0,0,1-.56.67c-3.44,2.41-5,5.87-5.39,9.9a6.76,6.76,0,0,1-1.59,3.9q-2.88,3.42-5.52,7a5.12,5.12,0,0,1-5.18,2.21C68.23,249.21,66.24,248.71,63.86,248.23Z" transform="translate(0 -116.16)"/><path d="M63.79,596.08c2.17-.42,3.85-.71,5.51-1.09,2.65-.6,4.78,0,6.35,2.36a38.37,38.37,0,0,0,3,3.85c2.19,2.54,4,5.1,4.3,8.71s2.58,6.42,5.68,8.51l-4,3.4A290.49,290.49,0,0,1,63.79,596.08Z" transform="translate(0 -116.16)"/><path d="M110,204.61l-3.42-4.14a288.77,288.77,0,0,1,25.74-20.68c.46,2.25.92,4.17,1.22,6.1a5.22,5.22,0,0,1-2.35,5.62,37,37,0,0,0-3.86,3c-2.61,2.27-5.31,4-9,4.4S112.05,201.42,110,204.61Z" transform="translate(0 -116.16)"/><path d="M506.27,200.46l-3.36,4.08c-2-2.8-4.52-5.32-8-5.53-4.38-.26-7.26-2.82-10.34-5.28a38.82,38.82,0,0,0-3.23-2.47,4.5,4.5,0,0,1-2.08-4.42c.2-2.21.72-4.39,1.19-7.06A278.76,278.76,0,0,1,506.27,200.46Z" transform="translate(0 -116.16)"/><path d="M132.32,664.52a283.78,283.78,0,0,1-25.72-20.66l3.34-4.08c.39.47.77.93,1.13,1.39a12.53,12.53,0,0,0,8.88,4.6A8.91,8.91,0,0,1,125,648a76.12,76.12,0,0,0,6.19,4.83,5.3,5.3,0,0,1,2.33,5.63C133.24,660.37,132.78,662.28,132.32,664.52Z" transform="translate(0 -116.16)"/><path d="M480.48,664.59c-.48-2.67-1-4.77-1.21-6.9a4.85,4.85,0,0,1,2.12-4.68c2.56-1.85,5-3.9,7.5-5.79a5.19,5.19,0,0,1,2.37-1.12c4.76-.54,9-2,11.58-6.43l3.4,4.16A281.88,281.88,0,0,1,480.48,664.59Z" transform="translate(0 -116.16)"/><path d="M380.57,510.74a14.14,14.14,0,0,1-2.53-6.07c-.84-3.88-1.45-7.81-2.31-11.68a35.14,35.14,0,0,0-1.8-5.66,11.76,11.76,0,0,0-5.37-5.65c4.8-1.39,11.91,2.56,15.13,8.21C388.09,497.62,385.54,506.49,380.57,510.74Z" transform="translate(0 -116.16)"/><path d="M244.93,515.46a16.84,16.84,0,0,1-16.82-10.67c-2.88-7.16-.13-15.45,4.47-18.73a40.77,40.77,0,0,1,2,5.29c1.05,4.56,1.82,9.18,2.82,13.75C238.32,509.38,240.21,513.08,244.93,515.46Z" transform="translate(0 -116.16)"/><path d="M592.93,466.61c.49-3.84.94-7.4,1.39-11a9.74,9.74,0,0,0,.21-1.6,8.07,8.07,0,0,1,2.13-5.62,12.49,12.49,0,0,0,2.85-9.85,9.46,9.46,0,0,1-.06-1.07c0-.08.08-.16.12-.24l4.7.4c0,2.23.16,4.48,0,6.7-.43,5.2-1.07,10.39-1.53,15.6a5.32,5.32,0,0,1-4.15,5C596.84,465.52,595.1,466,592.93,466.61Z" transform="translate(0 -116.16)"/><path d="M599.65,407.06c-.08-.11-.19-.19-.18-.25.72-4.81-.83-8.88-4-12.48a3.26,3.26,0,0,1-.75-1.68c-.62-4.65-1.18-9.32-1.74-14a3.36,3.36,0,0,1,.15-.88c1.94.55,3.85,1,5.72,1.64s3.49,1.93,3.7,4.21q1,11.06,1.94,22.12a3.45,3.45,0,0,1-.18.87Z" transform="translate(0 -116.16)"/><path d="M19.92,377.72c-.65,5.22-1.23,10.12-1.92,15a4.73,4.73,0,0,1-1.07,2.1c-2.8,3.55-4.47,7.41-3.34,12.23l-5.38-.43c.2-3.18.32-6.3.61-9.41.42-4.4,1-8.78,1.42-13.18a5,5,0,0,1,3.86-4.66C15.88,378.78,17.72,378.34,19.92,377.72Z" transform="translate(0 -116.16)"/><path d="M321.48,129.59c.22-1.92.39-3.44.58-5.15a6.34,6.34,0,0,1,1.34-.14c7.11.64,14.21,1.35,21.32,2a4.85,4.85,0,0,1,4.47,3.72c.58,1.79,1.06,3.62,1.7,5.86l-7.35-.86c-1.16-.13-2.32-.3-3.49-.42-2.87-.3-5.55-.71-8-2.74A11.53,11.53,0,0,0,321.48,129.59Z" transform="translate(0 -116.16)"/><path d="M322.07,720.34c-.21-2.15-.38-3.74-.56-5.57,5,1.14,9-.63,12.7-3.74a3.47,3.47,0,0,1,1.68-.75c4.48-.6,9-1.14,13.45-1.69a10.61,10.61,0,0,1,1.5.07c-.6,2.05-1.07,4-1.7,5.83a4.76,4.76,0,0,1-4.31,3.55C337.29,718.76,329.75,719.56,322.07,720.34Z" transform="translate(0 -116.16)"/><path d="M8.33,437.68l5-.43c0,.09.2.35.16.56-.9,4.33.57,8,3.23,11.29a6.8,6.8,0,0,1,1.53,3.64c.51,4.54,1.09,9.08,1.67,13.88-2.28-.68-4.36-1.2-6.36-1.92A4.32,4.32,0,0,1,10.35,461q-1.1-11.16-2.11-22.34A5.16,5.16,0,0,1,8.33,437.68Z" transform="translate(0 -116.16)"/><path d="M291.33,714.88c-.15,1.71-.29,3.22-.45,4.94a7.39,7.39,0,0,1-1.64.19c-7-.63-14-1.34-21-1.94a4.86,4.86,0,0,1-4.51-3.67c-.62-1.85-1.09-3.75-1.73-6l7,.84,4.31.53c2.68.3,5.15.76,7.43,2.65C283.9,715.08,286.55,715.39,291.33,714.88Z" transform="translate(0 -116.16)"/><path d="M262,135.87c.67-2.29,1.14-4.2,1.78-6.07a4.85,4.85,0,0,1,4.32-3.54c7.52-.94,15.05-1.66,22.76-2.05.19,1.83.35,3.47.54,5.33-5-1.14-9.08.68-12.75,3.78a3.06,3.06,0,0,1-1.42.7C272.28,134.64,267.36,135.22,262,135.87Z" transform="translate(0 -116.16)"/></g><g id="color-5"><path d="M311.35,474.24h-9.69c-.09-.78-.21-1.47-.24-2.16a204.31,204.31,0,0,0-13.09-65.62c-4.51-11.86-10.79-22.86-17.54-33.59-8.71-13.87-16.9-28-23.45-43.06-4.09-9.36-7.6-19-9.15-29.13-3.43-22.43,0-43.55,12.16-63a110.25,110.25,0,0,1,53.81-45,5.75,5.75,0,0,1,4.65,0c25.8,10.28,45,27.92,58,52.26,4.17,7.77,6.48,16.25,7.95,25,3.15,18.72.2,36.65-6.77,54.15-5.5,13.83-12.76,26.73-20.19,39.56-4.9,8.44-10.13,16.69-14.93,25.18-9.62,17.05-14.95,35.58-18.37,54.72a188.42,188.42,0,0,0-2.91,27.75C311.55,472.23,311.44,473.12,311.35,474.24Z" transform="translate(0 -116.16)"/><path d="M282.9,474.21H270.07c-.42-4.33-.77-8.54-1.25-12.73-2.63-22.82-12.4-42-30-56.81-11.73-9.87-25.55-13-40.46-9.84s-25.82,16.36-26.7,31.13c-.94,15.84,8.14,29.92,22.72,35.25,1.08.4,2.16.78,3.54,1.27a33.11,33.11,0,0,1-12,6.19c-17.72,4.9-35.35,4.32-51.9-3.72-18.9-9.2-32.25-23.76-37-44.84-2.28-10.12-1.39-20.29,1-30.36,2.88-12.31,9.67-22.31,18.32-31.16,12.5-12.77,27.86-19.84,45.57-21.7a99.36,99.36,0,0,1,41,3.76A74.91,74.91,0,0,1,225,352c11.32,8.43,21.41,18.16,29.39,29.82A152.74,152.74,0,0,1,277,431.42a203.49,203.49,0,0,1,5.94,39.33C283,471.81,282.9,472.89,282.9,474.21Z" transform="translate(0 -116.16)"/><path d="M343,474.17H330.29c0-2.8-.17-5.5,0-8.17,1.36-18.49,4.94-36.56,11.87-53.78,9.7-24.14,24.41-44.65,45.64-60.13a78.88,78.88,0,0,1,36.32-14.68,104.42,104.42,0,0,1,29.22-.3c20.11,2.93,36.59,12.29,49.31,28.3,11.76,14.8,15.85,31.62,13.93,50.08-1.4,13.48-7.65,24.7-16.94,34.37-11,11.48-24.27,18.65-40.1,20.91a77,77,0,0,1-33-2.24,32.81,32.81,0,0,1-11.37-6.08c1-.36,1.88-.7,2.77-1a34.82,34.82,0,0,0,23.44-34.26c-.73-15.65-11.46-29.05-26.66-32.32-14.91-3.2-28.73-.09-40.48,9.75a82.5,82.5,0,0,0-29.39,52.22c-.79,5.17-1.12,10.41-1.67,15.62C343.1,473,343,473.49,343,474.17Z" transform="translate(0 -116.16)"/><path d="M294.33,522.61h24.22c.22,1.7.48,3.36.64,5,1,10.76,3.77,21.13,6.89,31.44,2.58,8.56,5.24,17.14,6.95,25.89,3.13,15.94,1.12,31.31-7.13,45.58a39.8,39.8,0,0,1-17,15.9,4.82,4.82,0,0,1-4.82.06,39.75,39.75,0,0,1-16.59-15.16c-7.48-12.38-9.83-25.85-8.62-40.11.68-8,3.36-15.52,5.38-23.19s4.63-15.41,6.48-23.22c1.43-6.05,2.12-12.27,3.12-18.42C294.07,525.19,294.17,523.94,294.33,522.61Z" transform="translate(0 -116.16)"/><path d="M217.46,536.24c-.33.74-.54,1.21-.77,1.68-3.83,7.72-3.52,15.28,1.46,22.3s12.36,9.85,20.91,8.7c12.18-1.63,20.51-8.35,25-19.79a90.76,90.76,0,0,0,5.72-24.74c.05-.53.14-1.06.23-1.73h11.67c-.49,3.76-.84,7.34-1.43,10.88-2.32,13.83-6.33,27.05-14.05,39A49.16,49.16,0,0,1,240,593c-7.48,2.53-15.13,2.11-22.79.68-11.69-2.18-19.75-9-24.68-19.57A26.86,26.86,0,0,1,213,536.27,32.4,32.4,0,0,1,217.46,536.24Z" transform="translate(0 -116.16)"/><path d="M331.47,522.65h11.42c.46,3.3.86,6.51,1.36,9.7a81.05,81.05,0,0,0,5.07,17.94,30.07,30.07,0,0,0,28.21,18.87,21.21,21.21,0,0,0,19-30.63l-1.13-2.31a34.92,34.92,0,0,1,4.36,0c17.43,2.41,28,21.06,20.91,37.19-5.24,11.92-14.46,18.87-27.45,20.7a54,54,0,0,1-13.79.29c-6.81-.77-12.84-3.59-18.46-7.32a49.68,49.68,0,0,1-14.43-14.87c-7.32-11.38-11.23-24-13.61-37.13-.62-3.46-1-7-1.46-10.46A16.28,16.28,0,0,1,331.47,522.65Z" transform="translate(0 -116.16)"/></g><g id="color-6"><path d="M22.13,452.94c-4.26-3-7.13-6.33-8-11a9.63,9.63,0,0,1,2.18-8.12,20.19,20.19,0,0,1,7.77-6.21c4-1.62,8.13-3,12.22-4.39,1-.35,2.07-.52,3.64-.91a11.63,11.63,0,0,0-1.69-.77A64.12,64.12,0,0,1,24.66,417a22.88,22.88,0,0,1-8.59-6.89,9.75,9.75,0,0,1-1.58-9.23,17.31,17.31,0,0,1,7.48-9.4c.08.85.16,1.41.18,2a68.51,68.51,0,0,0,.24,7,17.05,17.05,0,0,0,8.32,12.44,117.33,117.33,0,0,0,10.61,5.39c2.58,1.24,5.22,2.35,8.48,3.81-3.2,1.45-5.8,2.6-8.37,3.8-3.1,1.45-6.29,2.78-9.26,4.47-7,4-10.4,10.06-10.12,18.15,0,.63.06,1.26.07,1.89S22.13,451.67,22.13,452.94Z" transform="translate(0 -116.16)"/><path d="M563.7,421.8c2.61-1.17,5.24-2.3,7.83-3.5,3-1.37,5.94-2.67,8.77-4.24,7.79-4.3,11.05-11.07,10.47-19.82,0-.45-.08-.9-.13-1.35s-.07-.69-.15-1.36a12.22,12.22,0,0,1,1.78.94,17.62,17.62,0,0,1,5.41,6.67c1.85,4.05,1.56,7.89-1.3,11.42a20,20,0,0,1-8,6.28c-3.93,1.56-8,2.85-12,4.23a8.66,8.66,0,0,0-3,1.32c1,.26,2,.46,3,.8,4.08,1.41,8.21,2.73,12.21,4.35a19.78,19.78,0,0,1,8,6.38,9.7,9.7,0,0,1,1.91,8.92c-1.16,4.26-3.84,7.36-7.84,10.1.06-1.22.07-1.9.12-2.57.71-9.1-2.7-16.09-10.84-20.42-4-2.11-8.18-3.8-12.27-5.69-1.3-.6-2.6-1.22-3.89-1.84Z" transform="translate(0 -116.16)"/><path d="M488.64,603.71c2.68,1,5.35,2.08,8.05,3.07,3.05,1.1,6.08,2.28,9.2,3.18,8.7,2.51,15.79-.18,21.56-6.92.45-.53.93-1,1.81-2,.79,5.86.58,10.9-3.5,15a9.35,9.35,0,0,1-5.23,2.63,19.29,19.29,0,0,1-10.91-1.1c-4.15-1.75-8.14-3.87-12.18-5.86a7.89,7.89,0,0,0-2.44-1,12.21,12.21,0,0,0,.8,1.67A51.13,51.13,0,0,1,502,625a32.15,32.15,0,0,1,1.36,7.67c.46,8.15-5.06,11.92-11.66,12.46-1.92.16-3.91.39-6-.65.83-.72,1.51-1.29,2.17-1.87,6.36-5.57,8.8-12.45,6.63-20.69-.87-3.31-2.18-6.49-3.35-9.71-1-2.69-2-5.35-3.06-8Z" transform="translate(0 -116.16)"/><path d="M127,199.84l-1.86,1.62c-6.48,5.59-9,12.52-6.79,20.89.86,3.21,2.08,6.33,3.22,9.47,1,2.79,2.12,5.54,3.37,8.76a77.43,77.43,0,0,1-8.72-3.06c-3.21-1.2-6.42-2.44-9.72-3.35-8.15-2.22-14.95.22-20.54,6.39-.65.72-1.27,1.48-2,2.28-2.22-5.23,0-12.76,4.44-15.81a9.81,9.81,0,0,1,6.17-1.7,38.74,38.74,0,0,1,8.51,1.29,47.69,47.69,0,0,1,12.42,6,5.06,5.06,0,0,0,2.34.89c-.36-.66-.74-1.32-1.08-2-1.94-3.87-4-7.69-5.76-11.63a21.07,21.07,0,0,1-1.45-10.9,10,10,0,0,1,5.78-8.27,17.08,17.08,0,0,1,10.84-1.36C126.41,199.36,126.61,199.6,127,199.84Z" transform="translate(0 -116.16)"/><path d="M124.91,603.58c-1.25,3.26-2.3,5.9-3.27,8.58-1.16,3.22-2.43,6.41-3.32,9.71-2.24,8.35.27,15.28,6.74,20.89.6.52,1.21,1,2.15,1.81a18.18,18.18,0,0,1-2.3.55,17.56,17.56,0,0,1-8.52-1.07c-4-1.66-6.42-4.5-6.84-8.94A21,21,0,0,1,111,624.49c1.75-4,3.81-7.77,5.75-11.63a6.09,6.09,0,0,0,.85-2.35c-.58.32-1.18.6-1.73,1A58.37,58.37,0,0,1,103,617.74a21.47,21.47,0,0,1-10.67,1,9.56,9.56,0,0,1-6.49-4c-2.77-4-3.24-8.43-2.16-13.54.8.9,1.33,1.47,1.84,2.06,5.74,6.61,12.79,9.35,21.35,6.76,5-1.51,9.84-3.52,14.76-5.29C122.49,604.34,123.4,604.07,124.91,603.58Z" transform="translate(0 -116.16)"/><path d="M486.08,199.62a5.4,5.4,0,0,1,1.16-.43,18.34,18.34,0,0,1,9.08,1,10.33,10.33,0,0,1,7,9.15,19.76,19.76,0,0,1-1.26,9.85c-1.77,4.05-3.82,8-5.78,11.93a9.08,9.08,0,0,0-1.1,2.61,17.55,17.55,0,0,0,1.73-.88,58.37,58.37,0,0,1,12.87-6.29,21.64,21.64,0,0,1,10.68-1,9.75,9.75,0,0,1,6.68,4.21c2.71,3.95,3,8.33,2.07,13.39-.86-.94-1.39-1.5-1.9-2.08-5.74-6.63-12.81-9.31-21.36-6.74-4.92,1.47-9.69,3.44-14.52,5.19l-3.15,1.13a16.27,16.27,0,0,1,.4-2c1-2.53,2-5,2.92-7.58a96.85,96.85,0,0,0,3.23-10.31c1.63-7.37-.89-13.49-6.3-18.56-.78-.74-1.59-1.45-2.37-2.19C486.09,200,486.12,199.85,486.08,199.62Z" transform="translate(0 -116.16)"/><path d="M306.44,678.52c1.43,3.24,2.55,5.9,3.78,8.5,1.5,3.19,2.9,6.44,4.67,9.46,4.52,7.74,11.53,10.55,20.23,9.68l1.92-.22a12,12,0,0,1-.88,1.71,17.06,17.06,0,0,1-7.13,5.68c-3.88,1.59-7.6,1.32-11-1.39a19.84,19.84,0,0,1-6.33-8c-1.63-4.1-3-8.32-4.39-12.5-.29-.84-.44-1.73-.8-3.16a14.23,14.23,0,0,0-.81,2,59.49,59.49,0,0,1-4.82,14.06,23.24,23.24,0,0,1-6.29,7.71,9.8,9.8,0,0,1-9.21,1.86c-4.14-1.15-7.26-3.83-9.84-7.79.87,0,1.35-.05,1.82,0,9.2,1.07,16.4-2.08,20.93-10.3,2.17-3.94,3.85-8.16,5.76-12.25C304.76,682.1,305.44,680.64,306.44,678.52Z" transform="translate(0 -116.16)"/><path d="M306.41,165.76c-1.47-3.27-2.64-6-3.9-8.66-1.55-3.25-3-6.6-4.82-9.68-4.43-7.37-11.24-10.08-19.61-9.38l-2.14.17c2.4-5.41,9-9.08,14.44-8a10.32,10.32,0,0,1,3.67,1.62,19,19,0,0,1,7.12,8.69c1.69,4.27,3,8.69,4.48,13,.17.51.25,1,.42,1.56.05.14.27.22.57.44.41-1.62.69-3.21,1.21-4.72,1.24-3.58,2.46-7.17,3.93-10.66a20.41,20.41,0,0,1,6.38-8,10,10,0,0,1,10.48-1.47,17.3,17.3,0,0,1,8.57,7.4c-2.89,0-5.42-.15-7.92,0a17.27,17.27,0,0,0-13.74,8.56,106.12,106.12,0,0,0-5.28,10.36C309,159.77,307.86,162.49,306.41,165.76Z" transform="translate(0 -116.16)"/><path d="M83,216.45c6.15-1.45,12-.89,17.26,2.84,3.32,2.35,6.48,4.92,9.7,7.4a7.29,7.29,0,0,0,2.38,1.39c-.29-.47-.54-1-.87-1.41-2.53-3.3-5.15-6.54-7.61-9.88-3.9-5.27-5-11.22-3.25-17.84a57.6,57.6,0,0,1,5.7,2.75,5.45,5.45,0,0,1,2.67,6,21.53,21.53,0,0,0,1.31,12.47c1.17,2.93,2.62,5.75,3.95,8.61.32.7.69,1.37,1.3,2.57-1.15-.56-1.75-.86-2.37-1.15-3-1.39-6-2.85-9.11-4.15a22.7,22.7,0,0,0-12.26-1.27,5.93,5.93,0,0,1-6.57-3.58C84.53,219.7,83.8,218.17,83,216.45Z" transform="translate(0 -116.16)"/><path d="M3.14,409.62c1.6-.56,3-1,4.29-1.5,3.1-1.27,5.64-.66,7.63,2a23.2,23.2,0,0,0,10.08,8c3.49,1.41,7.06,2.63,10.91,4.06l-1.78.65c-3.3,1.22-6.64,2.32-9.88,3.68a22.25,22.25,0,0,0-9.19,7.4c-2.23,3-4.62,3.58-8,2.08a18.94,18.94,0,0,0-2-.8c-.6-.17-1.23-.22-2.08-.37a8.73,8.73,0,0,1,.76-1.7C7.4,428.22,12,425,18.13,424.22c4.55-.59,9.08-1.25,14.18-2a11.17,11.17,0,0,0-1.7-.64c-4.48-.58-9-1-13.43-1.73-6.07-1-10.54-4.5-13.86-9.55A2,2,0,0,1,3.14,409.62Z" transform="translate(0 -116.16)"/><path d="M512.28,645.3c-1.76-.83-3.12-1.51-4.51-2.11-2.68-1.15-4.35-3.23-3.89-5.85,1.38-7.9-1.43-14.75-5-21.45-.42-.79-.87-1.58-1.52-2.75.87.31,1.41.46,1.91.69,3,1.41,6,2.91,9.07,4.24a23.41,23.41,0,0,0,12.77,1.41,5.85,5.85,0,0,1,6.5,3.68c.64,1.47,1.32,2.92,2.1,4.62-5.87,1.34-11.55,1-16.67-2.57-3.71-2.57-7.2-5.45-10.8-8.19a3.32,3.32,0,0,0-2-.81l1.54,2c2.58,3.38,5.27,6.67,7.71,10.14C513.11,633.49,513.55,639.18,512.28,645.3Z" transform="translate(0 -116.16)"/><path d="M609.93,409.68c-3.51,5.54-8.13,9.25-14.63,10.25-4.46.69-9,1.14-13.45,1.71-.3,0-.59.17-.87.77,1.9.23,3.8.43,5.7.69,3.05.4,6.11.7,9.13,1.28,6.21,1.19,10.72,4.78,14.08,10.13l-5.21,1.87a5.43,5.43,0,0,1-6.56-1.8c-3.4-4.92-8.18-7.82-13.66-9.78-2.44-.87-4.92-1.65-7.82-2.62.88-.35,1.4-.57,1.93-.76,3.21-1.19,6.47-2.28,9.64-3.58a22.46,22.46,0,0,0,9.43-7.53c2.16-2.87,4.61-3.49,7.82-2.15C606.77,408.71,608.16,409.08,609.93,409.68Z" transform="translate(0 -116.16)"/><path d="M497.42,231.3c1.57-3.21,2.92-5.86,4.16-8.57a26.2,26.2,0,0,0,2.36-15c-.47-3.29.89-5.36,3.86-6.64,1.39-.6,2.74-1.29,4.24-2a10.78,10.78,0,0,1,.91,5.37,19.62,19.62,0,0,1-3.9,12.17c-2.48,3.23-5,6.44-7.44,9.67a4.11,4.11,0,0,0-1,2.13c.54-.39,1.1-.76,1.63-1.16,3.45-2.64,6.82-5.38,10.34-7.91,5.2-3.72,11-4.2,17.13-2.89-.83,1.82-1.56,3.52-2.38,5.17a5.65,5.65,0,0,1-6.26,3.16,23.74,23.74,0,0,0-12.78,1.43c-2.9,1.26-5.74,2.64-8.61,4C499.06,230.45,498.46,230.78,497.42,231.3Z" transform="translate(0 -116.16)"/><path d="M306.45,691.93c.77,2.46,1.33,4.51,2.05,6.51,1.65,4.51,3.44,9,7.06,12.36q1.38,1.29,2.88,2.46a5.82,5.82,0,0,1,2,7.42c-.56,1.41-1,2.86-1.59,4.48a6.7,6.7,0,0,1-1.36-.64c-5-3.56-8.26-8.26-9.08-14.47-.6-4.54-1.21-9.07-2.22-13.66-.15.74-.33,1.48-.43,2.22-.57,4.3-1,8.62-1.73,12.89-1.08,6.18-4.84,10.51-10,13.87-.67-1.78-1.26-3.35-1.86-4.93-1-2.77-.45-5.28,1.94-7A24.61,24.61,0,0,0,302.9,702c1-2.61,1.86-5.28,2.78-7.93C305.88,693.49,306.09,692.92,306.45,691.93Z" transform="translate(0 -116.16)"/><path d="M112.09,615.88l-2,1.55c-3.3,2.52-6.54,5.14-9.92,7.56-4.9,3.48-12,4.48-17,2.6.75-1.62,1.46-3.25,2.24-4.85a5.68,5.68,0,0,1,6-3.32,24.62,24.62,0,0,0,14.32-1.82c3.1-1.41,6.17-2.87,9.62-4.48-.46.94-.78,1.63-1.14,2.3-2.23,4.25-4.51,8.5-5.18,13.31a32.69,32.69,0,0,0-.08,7.53c.32,3.28-.84,5.62-3.88,6.93-1.39.6-2.75,1.28-4.34,2a3.76,3.76,0,0,1-.3-.73c-1.29-6.25-.3-12,3.63-17.19,2.47-3.23,5-6.43,7.46-9.65.35-.46.62-1,.93-1.45Z" transform="translate(0 -116.16)"/><path d="M294,118.86c5.19,3.34,8.92,7.69,10,13.85.77,4.25,1.16,8.57,1.74,12.86a4.06,4.06,0,0,0,.87,2.23c.38-3.06.75-6.13,1.15-9.2.22-1.7.43-3.4.72-5.09,1.14-6.44,4.72-11.15,10.24-14.61.66,1.79,1.27,3.41,1.86,5a5.62,5.62,0,0,1-1.87,6.78,25.27,25.27,0,0,0-9.12,12.16c-1.12,3-2.08,6-3.22,9.25-.3-.78-.53-1.38-.75-2-1.18-3.21-2.25-6.47-3.57-9.63a22.19,22.19,0,0,0-7.53-9.39c-2.94-2.17-3.51-4.47-2.13-7.8C293,121.94,293.45,120.49,294,118.86Z" transform="translate(0 -116.16)"/><path d="M474.44,232.72a15.32,15.32,0,0,0,8.68.56c5.32-1.43,8.21-8.37,5.4-13.13a4.26,4.26,0,0,0-6.12-1.35,17.63,17.63,0,0,0-1.62,1.45c-.45-3.16.69-5.61,3.11-6.91a5.92,5.92,0,0,1,7.23,1c2.29,2.18,3.61,4.76,2.54,8-1,3.07-2,6.18-3.22,9.16a8.14,8.14,0,0,1-8.83,4.81A10.91,10.91,0,0,1,474.44,232.72Z" transform="translate(0 -116.16)"/><path d="M291.14,674.41c4.47.5,8.1,2.07,10.25,6.08a6.77,6.77,0,0,1,.39,6.26c-1.44,3.11-2.93,6.19-4.5,9.23-1.92,3.71-7.26,4.25-10,2.94A5.78,5.78,0,0,1,284,694c-.24-2.5.71-4.49,3.18-6.37a14.44,14.44,0,0,0-.22,1.49c.07,3.9,3.35,5.77,6.77,3.88,5.72-3.17,6.94-9.49,2.61-14.37A40.9,40.9,0,0,0,291.14,674.41Z" transform="translate(0 -116.16)"/><path d="M572.58,441.69c.78,0,1.32,0,1.84-.09a4.24,4.24,0,0,0,3.32-6.29c-2.87-6.08-9.69-7.57-14.67-3.06a43.93,43.93,0,0,0-4.16,5,12.81,12.81,0,0,1,3.56-8.33c2.48-2.58,5.54-3.5,8.9-2.12a78.81,78.81,0,0,1,9.23,4.52c3.28,1.88,4.49,6.68,2.76,10A6.32,6.32,0,0,1,572.58,441.69Z" transform="translate(0 -116.16)"/><path d="M325.93,688c2.77,2.21,3.56,4.56,2.65,7.26s-2.82,4.15-5.93,4.22-5.88-1-7.41-4c-1.43-2.82-2.86-5.63-4.1-8.53a7.53,7.53,0,0,1,1.46-8.33c2.3-2.62,5.29-3.95,9.42-4.23-1.09.68-1.69,1-2.22,1.39a24.3,24.3,0,0,0-3.12,2.58c-4.47,4.86-3.49,11.06,2.2,14.45,3.54,2.11,6.74.38,7-3.75C325.87,688.83,325.89,688.56,325.93,688Z" transform="translate(0 -116.16)"/><path d="M480.72,623.89a16.49,16.49,0,0,0,1.62,1.51,4.22,4.22,0,0,0,6.38-1.71,9.15,9.15,0,0,0-6.32-12.86,15.46,15.46,0,0,0-7.83.68c3.4-4.46,13.23-5.82,16.09,1.59a88.81,88.81,0,0,1,3.22,9.74c.9,3.52-2.44,8.2-6,8.78C483.63,632.33,480.27,628.86,480.72,623.89Z" transform="translate(0 -116.16)"/><path d="M558.92,406.5c.65,1.06,1,1.7,1.4,2.25a23.23,23.23,0,0,0,2.78,3.3c4.91,4.31,11.25,3.09,14.4-2.67,1.84-3.36.21-6.38-3.67-6.76-.35,0-.7,0-1.1-.05A6,6,0,0,1,580,400a6.15,6.15,0,0,1,4.15,6.59c-.25,2.82-1.26,5.3-4,6.65s-5.63,2.89-8.54,4.09a7.92,7.92,0,0,1-9.34-2.27A13.26,13.26,0,0,1,558.92,406.5Z" transform="translate(0 -116.16)"/><path d="M508.29,247.87a13.57,13.57,0,0,0,1-.93c2.41-2.76,1.5-6.13-2-7.26-6.82-2.24-12.64,2.25-12.33,9.56.07,1.59.46,3.17.79,5.32-3-3.67-4.2-7.27-3.1-11.39a7,7,0,0,1,4.31-4.92c3.12-1.18,6.26-2.29,9.44-3.29,3.83-1.21,7.74,1.42,9.19,4.51a5.82,5.82,0,0,1-.84,6.13C513.4,247.52,511.33,248.27,508.29,247.87Z" transform="translate(0 -116.16)"/><path d="M325.83,156.32c.2-2.56-.25-4.55-2.55-5.48s-4.22.21-5.9,1.68c-4.38,3.83-4.71,8.75-.89,13.14a16,16,0,0,0,2.41,2.17,13.07,13.07,0,0,1,2.45,1.95,24.52,24.52,0,0,1-3.33-.66,11.25,11.25,0,0,1-6.06-4.35,7.49,7.49,0,0,1-.84-7.48c1.37-3,2.91-6,4.38-9,1.65-3.37,6.87-4.41,10-3C329.75,147.23,330.1,152.83,325.83,156.32Z" transform="translate(0 -116.16)"/><path d="M287,156.41c-2.9-2.38-3.73-4.9-2.76-7.61s3.08-4.15,6.32-4.09c3,0,5.5,1.15,6.92,3.93s2.94,5.79,4.24,8.76.47,5.68-1.44,8.1a12.37,12.37,0,0,1-9.4,4.16,23.87,23.87,0,0,0,2.2-1.3,21.69,21.69,0,0,0,3.11-2.59c4-4.49,3.5-10-1.28-13.67-1.73-1.34-3.6-2.24-5.75-1.11S286.68,153.9,287,156.41Z" transform="translate(0 -116.16)"/><path d="M117.05,254.07a15.61,15.61,0,0,0,.18-9.08c-1.56-4.91-8.6-7.52-13-4.81a4.2,4.2,0,0,0-1.42,5.9,14,14,0,0,0,1.65,1.8,7.1,7.1,0,0,1-1.77.24,6.39,6.39,0,0,1-5.75-4.63c-.89-2.72.26-4.77,2.14-6.53a7.3,7.3,0,0,1,7.49-2c2.93.91,5.85,1.86,8.68,3a8.11,8.11,0,0,1,5.2,9.11A10.74,10.74,0,0,1,117.05,254.07Z" transform="translate(0 -116.16)"/><path d="M104.13,596.22a3.3,3.3,0,0,1-.34.78c-1.38,1.37-2.1,2.91-1.38,4.88s2.5,2.74,4.44,3c7.28,1.13,12.2-4.28,10.79-11.85-.18-1-.48-1.9-.75-3,5.78,4.83,4.62,13.55-2.12,16.36-2.74,1.14-5.61,2-8.45,2.84-4.09,1.25-8.06-1.86-9.28-4.79-1.3-3.1.76-7.11,4.23-8.13a6.06,6.06,0,0,1,1.34-.23C103,596.13,103.49,596.19,104.13,596.22Z" transform="translate(0 -116.16)"/><path d="M495.79,590.31c-.11.48-.19,1-.32,1.45a13.61,13.61,0,0,0,0,7.22c1.46,5.1,8.46,7.83,13,5.12a4.24,4.24,0,0,0,1.47-5.89,17.31,17.31,0,0,0-1.46-1.82,6.21,6.21,0,0,1,7.11,8.35c-1.44,3.18-5.47,5.75-9.15,4.56-3.16-1-6.34-2-9.43-3.29a7.35,7.35,0,0,1-4.68-6.45A10.74,10.74,0,0,1,495.79,590.31Z" transform="translate(0 -116.16)"/><path d="M132.1,624.05c.35,3.22-.84,5.62-3.28,6.9a5.92,5.92,0,0,1-7.23-1.14c-2.32-2.21-3.45-4.88-2.43-8.09,1-3,1.92-6,3.14-8.93a8.19,8.19,0,0,1,9.34-4.81,10.85,10.85,0,0,1,6.76,3.5c-2.83-.71-5.44-1.25-8.18-.62a9.16,9.16,0,0,0-6,13,4.2,4.2,0,0,0,6.24,1.56C131,625,131.48,624.56,132.1,624.05Z" transform="translate(0 -116.16)"/><path d="M132.15,220.39c-.55-.53-.84-.84-1.17-1.1-2.94-2.38-6.3-1.24-7.28,2.45-1.86,7.07,3,12.72,10.37,11.93,1.33-.14,2.64-.51,4.35-.85-.6.6-.9,1.13-1.35,1.31a35.14,35.14,0,0,1-6.32,2.21,7.58,7.58,0,0,1-8.1-4.23A74.9,74.9,0,0,1,119,221.65c-.93-3.49,1.72-7.85,5.17-8.83C129.17,211.41,133,216,132.15,220.39Z" transform="translate(0 -116.16)"/><path d="M53.77,437a44.6,44.6,0,0,0-4-4.77c-6-5.31-11.52-1.84-14.27,2.31-2.11,3.18-.24,7.05,3.41,7.07.35,0,.71.05,1.26.09a5.5,5.5,0,0,1-5.48,2.86,5.78,5.78,0,0,1-5.37-3.5,7.9,7.9,0,0,1,3.18-9.9,78.3,78.3,0,0,1,8.74-4.25,7.92,7.92,0,0,1,9.5,2.44A12.24,12.24,0,0,1,53.77,437Z" transform="translate(0 -116.16)"/><path d="M40.18,402.54a17,17,0,0,0-1.89.12A4.26,4.26,0,0,0,35,408.8c2.43,5.69,9.09,7.6,13.94,3.81a40.21,40.21,0,0,0,4.6-4.94,9.42,9.42,0,0,1-12.91,9.46,65.34,65.34,0,0,1-8.44-4.25c-3.25-1.91-4.46-6.7-2.77-10C31.4,398.9,37.05,398.62,40.18,402.54Z" transform="translate(0 -116.16)"/><path d="M42.43,440.21c2.86,2.57,3.22,4.79,1.39,7.59a8.31,8.31,0,0,1-7,3.92,12.28,12.28,0,0,1-11.93-9.23A5.62,5.62,0,0,1,26,437a18,18,0,0,1,1.94-2c-.4,4.69,0,9,5.39,10.3C37.57,446.24,40.39,443.92,42.43,440.21Z" transform="translate(0 -116.16)"/><path d="M42.5,403.8c-3.6-4.63-6.5-5.91-10.14-4.49S27.7,403,28.1,409a6.1,6.1,0,0,1-3.46-6.14c1.07-6.74,7.67-11.53,13.94-10.1a8.08,8.08,0,0,1,5.93,5.06C45.51,400.24,44.83,402.13,42.5,403.8Z" transform="translate(0 -116.16)"/><path d="M100.56,609.65c-6,1-8.26-2.25-9.25-7.36a11.39,11.39,0,0,1,3.38-10.42,8,8,0,0,1,9-2c2.59.94,3.55,2.76,3.12,5.91-.77-.15-1.52-.35-2.29-.45a7.41,7.41,0,0,0-8.62,6.92,6.92,6.92,0,0,0,2.42,5.51C99,608.39,99.75,609,100.56,609.65Z" transform="translate(0 -116.16)"/><path d="M100.64,234.47c-4.78,4.08-5.77,6.68-4.09,10.32s4.71,4.68,10.15,3.81c.63,2.78-.34,4.8-2.9,5.77a7.93,7.93,0,0,1-9-1.88c-3.34-3.41-4.61-7.57-3.09-12.18C93.16,236,94.84,234,100.64,234.47Z" transform="translate(0 -116.16)"/><path d="M132.7,621.59c2.76-.53,4.62.35,5.7,2.71a8.28,8.28,0,0,1-1.58,9.08c-3.47,3.47-7.72,4.81-12.42,3.23s-6-3-5.94-9.11c3,4,6.29,6.77,11.22,3.91C132.7,629.67,133.56,626.67,132.7,621.59Z" transform="translate(0 -116.16)"/><path d="M506,248.52c.77.15,1.54.33,2.31.44a7.45,7.45,0,0,0,8.68-7.41,7.27,7.27,0,0,0-2.6-5.16c-.61-.61-1.32-1.13-2.09-1.77,4.36-.6,6.27.36,8.09,3.83a12,12,0,0,1-2.48,14.17,8.08,8.08,0,0,1-9,1.7C506.48,253.38,505.51,251.37,506,248.52Z" transform="translate(0 -116.16)"/><path d="M512.17,609.79c4.82-4.14,5.79-6.69,4.1-10.34-1.59-3.44-4.75-4.62-10.2-3.8a4.49,4.49,0,0,1,2.64-5.66,8.18,8.18,0,0,1,9.26,1.74c3.39,3.52,4.71,7.75,3,12.44C519.53,608.39,518.07,610.16,512.17,609.79Z" transform="translate(0 -116.16)"/><path d="M132.63,222.76c1-5.18,0-8.34-3.25-10.1-3.65-2-5.89-1.23-10.8,3.71-.5-5.77,1.68-7.67,6.67-9a11.48,11.48,0,0,1,11.05,3,8.09,8.09,0,0,1,2.35,8.89C137.8,222,135.93,223.09,132.63,222.76Z" transform="translate(0 -116.16)"/><path d="M319,700.1c5.95.73,8.6-.32,10.15-3.87,1.62-3.73.39-6.68-4.34-10.41,1.7-2.38,3.73-3,6.24-1.9a8.44,8.44,0,0,1,5,8c-.28,4.31-2,8-5.91,10.1C325.38,704.66,323.05,704.63,319,700.1Z" transform="translate(0 -116.16)"/><path d="M324.63,158.39c4.6-3.15,6-6.3,4.64-10s-4.39-5.09-9.88-4.27a6.35,6.35,0,0,1,6.66-3.51,12.27,12.27,0,0,1,10,11.87,8.27,8.27,0,0,1-4.69,7.67C328.79,161.49,326.72,160.94,324.63,158.39Z" transform="translate(0 -116.16)"/><path d="M570.4,440.45c3.16,4.48,6.18,5.88,9.85,4.55,3.85-1.4,5-4,4.41-10.22,2.16,1.94,3.84,3.67,3.49,6.63-.71,6-6.92,11-12.91,10.25a8.18,8.18,0,0,1-6.86-5C567.26,444.11,568,442,570.4,440.45Z" transform="translate(0 -116.16)"/><path d="M294.05,144.19c-6.24-.82-9.12.42-10.52,4.18s.07,7,4.48,9.84a4.34,4.34,0,0,1-6,2.22,8,8,0,0,1-5.17-7,12.19,12.19,0,0,1,9.79-12.78C289.83,140,291.65,142,294.05,144.19Z" transform="translate(0 -116.16)"/><path d="M288.21,685.87c-4.53,3-6,6-4.78,9.7,1.27,3.9,3.67,5,10.14,4.67-2.92,3.64-5.31,4.31-9.38,2.61a12.12,12.12,0,0,1-7.32-12.17,8.06,8.06,0,0,1,4.36-6.47C283.86,682.73,286,683.25,288.21,685.87Z" transform="translate(0 -116.16)"/><path d="M570.36,403.82c-2.41-1.67-3.1-3.72-2-6.21a8.26,8.26,0,0,1,7.41-5.08c5.64-.38,11.24,4.19,12.29,9.74.61,3.26-1.24,5.19-3.2,7.13a52.78,52.78,0,0,0-.49-6c-.42-2.24-2.18-3.43-4.22-4.17C576.59,397.94,573.66,399.32,570.36,403.82Z" transform="translate(0 -116.16)"/><path d="M494,216.06c-4.57-4.61-6.78-5.35-10.42-3.48-3.29,1.69-4.33,4.71-3.46,10.09-2.91.56-5-.53-5.92-3.2A8.16,8.16,0,0,1,476,210.9a12.16,12.16,0,0,1,15.13-2.09C493.84,210.53,494.64,212.52,494,216.06Z" transform="translate(0 -116.16)"/><path d="M480.16,621.47c-.94,5.33.06,8.36,3.23,10.1,3.63,2,5.74,1.32,10.66-3.38.55,3.87-.35,5.83-3.48,7.57a12.23,12.23,0,0,1-14.65-2.44,8.11,8.11,0,0,1-1.92-7.81C474.79,622.43,476.64,621.17,480.16,621.47Z" transform="translate(0 -116.16)"/><path d="M611.33,422.08a10.39,10.39,0,0,1-5.46,4.59,2.88,2.88,0,0,1-2.24-.07c-4-2.76-8.72-3.22-13.34-3.93a2.5,2.5,0,0,1-1.65-.82c1.73-.27,3.45-.59,5.18-.82a20.52,20.52,0,0,0,9.36-3.2,2.71,2.71,0,0,1,3-.17A11.89,11.89,0,0,1,611.33,422.08Z" transform="translate(0 -116.16)"/><path d="M522,637.48c-2.66,1-5.15.34-7.58-.78a1.91,1.91,0,0,1-1-1.14c-.81-5.27-4.21-9.1-7.19-13.18-.16-.21-.28-.46-.7-1.15a16.4,16.4,0,0,1,1.78.93c1.55,1.1,3.07,2.24,4.6,3.36a18.36,18.36,0,0,0,7.38,3.26,2.52,2.52,0,0,1,2.15,1.73A10.4,10.4,0,0,1,522,637.48Z" transform="translate(0 -116.16)"/><path d="M505.85,222.41c1.11-1.52,2.2-3.06,3.34-4.56a19.45,19.45,0,0,0,4-8.48,2.52,2.52,0,0,1,1.8-2.12c2.23-.8,4.48-1.37,6.94-.5.92,2.65.32,5.14-.8,7.54a1.89,1.89,0,0,1-1.15,1c-5.07.78-8.8,4-12.73,6.85-.34.25-.7.46-1.06.69Z" transform="translate(0 -116.16)"/><path d="M24.4,422.4c-2,.3-3.75.59-5.53.83a20.06,20.06,0,0,0-9.14,3.14,2.88,2.88,0,0,1-3.27.16,11.2,11.2,0,0,1-4.91-4.31,9.87,9.87,0,0,1,5.82-4.83,2.23,2.23,0,0,1,1.77.2c4,2.85,8.73,3.27,13.36,4,.53.08,1.06.19,1.58.3C24.13,421.88,24.16,422,24.4,422.4Z" transform="translate(0 -116.16)"/><path d="M90.82,206.86c1.93-1,3.79-.47,5.64-.09a3.7,3.7,0,0,1,3.34,3.32,16.08,16.08,0,0,0,3.29,7,36.43,36.43,0,0,1,3.7,5.81c-.75-.51-1.52-1-2.25-1.54-3.54-2.65-7.06-5.32-11.61-6.1a2.56,2.56,0,0,1-1.45-1.39A10,10,0,0,1,90.82,206.86Z" transform="translate(0 -116.16)"/><path d="M306.73,117.29c1.21,1.39,2.39,2.61,3.39,3.94a3.87,3.87,0,0,1,.14,5.13c-1.94,2.69-2.4,6-2.87,9.18a21.21,21.21,0,0,1-1.12,4.87c-.34-1.83-.78-3.65-1-5.49a20.87,20.87,0,0,0-3.32-9.59,2.13,2.13,0,0,1-.24-2.25A11.56,11.56,0,0,1,306.73,117.29Z" transform="translate(0 -116.16)"/><path d="M107,621.8c-.76,1.05-1.48,2.13-2.28,3.15a25.07,25.07,0,0,0-5.25,10.24,2.53,2.53,0,0,1-1.2,1.59c-2.33,1-4.76,1.66-7.5.65a37.91,37.91,0,0,1,0-5c.27-2.06,1.19-3.57,3.65-3.93a16.38,16.38,0,0,0,7.22-3.52c1.62-1.2,3.26-2.38,4.89-3.57Z" transform="translate(0 -116.16)"/><path d="M306.06,726.93a49,49,0,0,1-3.39-3.92c-1.14-1.6-1.55-3.17-.14-5.11,2.33-3.24,2.55-7.23,3.16-11a9.08,9.08,0,0,1,.92-3.05c.38,2.28.82,4.55,1.13,6.84a17.55,17.55,0,0,0,2.83,7.78,3.1,3.1,0,0,1,.18,3.5A11,11,0,0,1,306.06,726.93Z" transform="translate(0 -116.16)"/></g><g id="color-7"><path d="M352.84,515.73c-3.41,0-6.85.23-10.24-.05-4.91-.41-8.64-2.92-10.14-7.7-1.26-4-1.9-8.24-2.81-12.37-.27-1.23-.49-2.48-.78-3.71-1-4.25-2.77-8-7.41-10.43a17.83,17.83,0,0,1,2.2-.32c2.53,0,5.06,0,7.59,0,5.66.06,9.73,2.75,11.43,8.17,1.21,3.85,1.76,7.9,2.66,11.85.54,2.37,1.08,4.75,1.81,7.06a12.56,12.56,0,0,0,6,7Z" transform="translate(0 -116.16)"/><path d="M260,481.33c3.93,0,7.91-.38,11.78.11a9.82,9.82,0,0,1,8.34,6.91c1.18,3.57,1.85,7.32,2.7,11,.34,1.49.56,3,.87,4.51,1,4.72,2.67,9,7.42,11.38l-.2.54h-2.83c-2.17,0-4.34,0-6.5,0-5.62-.11-9.73-2.89-11.48-8.21a99.31,99.31,0,0,1-2.31-10c-.41-1.85-.73-3.71-1.12-5.56C265.76,487.69,263.94,484,260,481.33Z" transform="translate(0 -116.16)"/><path d="M290.52,481.33c4.47,0,8.45-.38,12.32.1a9.74,9.74,0,0,1,8.25,6.63,106.54,106.54,0,0,1,2.69,10.44c.42,1.76.67,3.54,1,5.31.95,4.74,2.62,9,7.89,11.67-1.3.16-1.88.28-2.46.29-2.53,0-5.06.05-7.58,0-5.62-.12-9.72-2.88-11.44-8.24-1.15-3.59-1.69-7.37-2.5-11.06-.35-1.58-.63-3.18-1-4.76C296.37,486.44,295.26,484.8,290.52,481.33Z" transform="translate(0 -116.16)"/><path d="M232.91,485.18l2.93-1.91c5.78-3.76,10-.45,12.49,3.59a17.94,17.94,0,0,1,2,5.31c.87,3.78,1.47,7.62,2.25,11.42,1,4.81,2.63,9.24,8,11.93-1.24.13-1.82.25-2.39.25-2.63,0-5.25.1-7.87,0-5.41-.23-9.41-2.72-11.15-7.93a82.7,82.7,0,0,1-2.37-10.27C235.93,493.39,235.27,489.19,232.91,485.18Z" transform="translate(0 -116.16)"/><path d="M379.8,511.49a15.14,15.14,0,0,1-7.05,3.73,4.06,4.06,0,0,1-2.09-.19c-3.17-1-5.69-3-6.75-6.2-1.17-3.49-1.89-7.13-2.73-10.72-.46-1.93-.74-3.9-1.16-5.84-.94-4.38-2.65-8.28-7.43-10.75a20.48,20.48,0,0,1,2.27-.37c2.62,0,5.24-.08,7.86,0,5.22.16,9.12,2.56,10.81,7.53a91.72,91.72,0,0,1,2.7,11.57C377,504.06,377.71,507.87,379.8,511.49Z" transform="translate(0 -116.16)"/><path d="M50.71,266c.53-1.12.69-1.61,1-2,2.66-4.07,5.37-8.11,8-12.2a5,5,0,0,1,5.8-2.37c2.89.59,5.77,1.41,9.36.16-.76,1.29-1.16,2-1.64,2.76-2.36,3.41-4.82,6.75-7.07,10.22a5.61,5.61,0,0,1-5.76,2.62c-.63-.07-1.25-.21-1.87-.3C56,264.5,53.53,264.14,50.71,266Z" transform="translate(0 -116.16)"/><path d="M43.87,301.94c-.29.8-.53,1.63-.86,2.41-1.59,3.83-3.29,7.62-4.79,11.49a5.54,5.54,0,0,1-5.13,3.72c-1,.1-2,.19-3,.23a8.22,8.22,0,0,0-6.28,2.78,17,17,0,0,1,.44-2.21c1.78-4.63,3.62-9.24,5.37-13.88a4.84,4.84,0,0,1,4.73-3.38c3.1-.14,6.29.36,9.14-1.67Z" transform="translate(0 -116.16)"/><path d="M24.83,486.92c-2.61-2.51-5.47-2.92-8.27-3.49a5.44,5.44,0,0,1-4.78-5.05c-.72-5.15-1.73-10.27-2.67-15.7a32.28,32.28,0,0,0,4.15,2.78,36,36,0,0,0,4.63,1.42,5.73,5.73,0,0,1,4.31,5c.67,4.17,1.59,8.31,2.38,12.46C24.7,485,24.71,485.64,24.83,486.92Z" transform="translate(0 -116.16)"/><path d="M149.88,166.94c-1.57,2.56-1.29,5.11-.85,7.71a14.59,14.59,0,0,1,.22,3.23,4.29,4.29,0,0,1-1.74,3.51q-6.24,4.34-12.5,8.61a3.24,3.24,0,0,1-.76.28c0-1.68.11-3.32,0-4.94s-.6-3.19-.79-4.8a4.37,4.37,0,0,1,1.84-4.52l13.61-8.89A3.6,3.6,0,0,1,149.88,166.94Z" transform="translate(0 -116.16)"/><path d="M347.16,125.22c2.1.32,4.21.6,6.3,1,3.3.55,6.58,1.24,9.88,1.72,2.44.34,3.61,1.83,4.25,4a17.13,17.13,0,0,1,.44,1.85c.44,2.39.89,4.77,2.9,6.53l-.27.46c-.84-.08-1.69-.09-2.52-.25-4.08-.78-8.14-1.69-12.24-2.37a5.44,5.44,0,0,1-4.61-4c-.23-.68-.43-1.38-.61-2.08-.63-2.46-1.36-4.86-3.81-6.32Z" transform="translate(0 -116.16)"/><path d="M538.66,249.67c2.71,1.07,5.37.48,8-.19a5.63,5.63,0,0,1,6.88,2.77c2.71,4.36,5.62,8.59,8.33,13.13-3.29-1.55-6.5-.6-9.73-.25a5.22,5.22,0,0,1-5.31-2.47c-2.34-3.54-4.83-7-7.24-10.47-.45-.64-.82-1.35-1.22-2Z" transform="translate(0 -116.16)"/><path d="M9.16,381.32c1-5.58,1.9-11.15,2.88-16.72a4,4,0,0,1,2.45-3,17.46,17.46,0,0,1,3.09-.93c2.45-.53,4.91-1,7.09-3.19a13.67,13.67,0,0,1,0,2.2c-.83,4.42-1.74,8.83-2.54,13.25a5.23,5.23,0,0,1-3.43,4.16,19,19,0,0,1-2.83.9c-2.41.56-4.65,1.38-6.1,3.63Z" transform="translate(0 -116.16)"/><path d="M588,486.27c.1-.87.16-1.74.32-2.58.79-4.08,1.71-8.13,2.38-12.23a5.22,5.22,0,0,1,3.57-4.33c.84-.33,1.71-.57,2.58-.82,3.78-1.09,3.85-1.13,6.63-3.72-.3,2.3-.49,4.22-.8,6.13-.53,3.29-1.2,6.57-1.68,9.87-.41,2.83-2.08,4.26-4.73,4.84s-5.73.83-7.89,3.21Z" transform="translate(0 -116.16)"/><path d="M538,594.7c.74-1.25,1.14-2,1.64-2.75,2.31-3.35,4.73-6.62,6.93-10a5.69,5.69,0,0,1,6.24-2.72c.9.14,1.81.19,2.69.37a8.68,8.68,0,0,0,6.47-1.18,16,16,0,0,1-.87,1.94c-2.66,4.09-5.37,8.14-8,12.25a5,5,0,0,1-5.83,2.31C544.4,594.26,541.51,593.5,538,594.7Z" transform="translate(0 -116.16)"/><path d="M51,579c2.81,1.28,5.41.68,8,.37a14.33,14.33,0,0,1,2.68-.27,4.81,4.81,0,0,1,4,1.94c2.76,4,5.55,8,8.31,12a8.2,8.2,0,0,1,.59,1.55,14.22,14.22,0,0,0-8.44.19c-3.05.8-5.19-.16-6.83-2.85-2.21-3.61-4.64-7.09-6.95-10.64C51.8,580.56,51.4,579.77,51,579Z" transform="translate(0 -116.16)"/><path d="M241.94,140.2c1.91-1.69,2.33-4,2.85-6.3a20.31,20.31,0,0,1,.84-3.13,3.92,3.92,0,0,1,2.86-2.67c5.68-1,11.37-2,17.41-3a34,34,0,0,0-2.8,4,19.77,19.77,0,0,0-1.3,4.12,6.08,6.08,0,0,1-5.56,5.06c-3.74.56-7.44,1.43-11.17,2.14-.94.18-1.9.26-2.86.38Z" transform="translate(0 -116.16)"/><path d="M603,381.49c-1.43-2.13-3.56-3-5.89-3.49a17.34,17.34,0,0,1-2.84-.89,5.25,5.25,0,0,1-3.55-4.36c-.66-4.09-1.59-8.14-2.38-12.22-.16-.84-.2-1.7-.37-3.18,2.69,2.49,5.55,2.89,8.35,3.5,1.9.41,3.84,1.12,4.26,3.27,1.13,5.65,2.07,11.33,3.08,17Z" transform="translate(0 -116.16)"/><path d="M149.42,677.29a11.51,11.51,0,0,1-1.41-.69c-4.08-2.65-8.11-5.38-12.22-8a4.86,4.86,0,0,1-2.36-5c0-.45.09-.9.18-1.34a32.83,32.83,0,0,0,.77-4.24,27.31,27.31,0,0,0-.42-4.33c1,.61,1.76,1,2.47,1.51,3.41,2.36,6.76,4.81,10.23,7.06a5.35,5.35,0,0,1,2.62,5.24c-.08,1.17-.31,2.32-.46,3.48A11.73,11.73,0,0,0,149.42,677.29Z" transform="translate(0 -116.16)"/><path d="M407,704.32a12.74,12.74,0,0,0,1.92-6.92,16.92,16.92,0,0,1,.5-3.75,4.45,4.45,0,0,1,2.65-3.21c4.42-1.84,8.82-3.71,13.23-5.55a7.15,7.15,0,0,1,1.45-.26A38.13,38.13,0,0,0,425.7,689c-.19,1.52,0,3.07-.1,4.6a5.3,5.3,0,0,1-3.7,5.13c-4.4,1.61-8.76,3.37-13.14,5C408.2,704,407.6,704.15,407,704.32Z" transform="translate(0 -116.16)"/><path d="M371,703.75c-2.22,2.34-2.61,5.12-3.17,7.83s-1.93,4.48-4.93,4.91c-4.82.67-9.6,1.59-14.4,2.39a15.22,15.22,0,0,1-1.87,0c2.79-1.87,3.57-4.41,4.22-7a13.33,13.33,0,0,1,1-2.8,4.26,4.26,0,0,1,2.92-2.6c4.87-1,9.73-1.9,14.6-2.82A7.19,7.19,0,0,1,371,703.75Z" transform="translate(0 -116.16)"/><path d="M406.47,139.62c2.83,1,5,1.79,7.19,2.63,2.78,1.07,5.5,2.27,8.3,3.28a5.27,5.27,0,0,1,3.63,4.88,9.75,9.75,0,0,1,0,1.08c0,2.67-.28,5.38,1.65,8.39-1.47-.48-2.3-.68-3.08-1-3.74-1.57-7.43-3.28-11.23-4.69a5.6,5.6,0,0,1-3.84-4.75,21.74,21.74,0,0,1-.21-2.42C408.71,143.31,408.65,143.08,406.47,139.62Z" transform="translate(0 -116.16)"/><path d="M265.59,719c-2.09-.3-4.19-.58-6.28-.93-3.28-.55-6.55-1.24-9.84-1.72a4.81,4.81,0,0,1-4.16-3.7,11.94,11.94,0,0,1-.36-1.3c-.46-2.65-.94-5.3-3.42-7.86,1.55.15,2.4.16,3.23.32,4.07.78,8.11,1.69,12.2,2.36a5.6,5.6,0,0,1,4.6,4c.18.51.31,1,.45,1.56.67,2.6,1.25,5.25,3.93,6.81Z" transform="translate(0 -116.16)"/><path d="M185.67,159.6c1.66-2.7,1.72-5.38,1.59-8.06-.16-3.21,1.16-5.22,4.31-6.3,4-1.37,7.89-3.06,11.84-4.59A10.25,10.25,0,0,1,206,140c-1.7,2-2,4.36-2.13,6.79a18.33,18.33,0,0,1-.3,3,4.91,4.91,0,0,1-2.85,4c-4.4,1.85-8.79,3.73-13.2,5.55A8,8,0,0,1,185.67,159.6Z" transform="translate(0 -116.16)"/><path d="M43.47,542.58c-2.63-1.53-5.51-1.43-8.37-1.42s-4.59-1.06-5.58-3.76c-1.83-5-3.84-9.87-5.6-15,2.51,2.05,5.42,2.16,8.31,2.25,3.14.1,5.19,1.41,6.27,4.53,1.18,3.39,2.76,6.65,4.16,10,.41,1,.79,2,1.18,3Z" transform="translate(0 -116.16)"/><path d="M588.77,522.9c-.26.84-.49,1.69-.8,2.51-1.6,4.12-3.27,8.21-4.83,12.35a4.88,4.88,0,0,1-4.74,3.37c-.81,0-1.63,0-2.43,0-2.21.28-4.4.63-6.86,1a19.41,19.41,0,0,1,.67-2.15c1.59-3.83,3.31-7.61,4.8-11.48a5.62,5.62,0,0,1,5.07-3.82c.72-.08,1.44-.09,2.16-.12,2.38-.12,4.68-.45,6.6-2.09Z" transform="translate(0 -116.16)"/><path d="M463.07,677c1.47-2.37,1.2-4.84.71-7.33a12.77,12.77,0,0,1-.25-2.69,4.86,4.86,0,0,1,1.94-4.24c3.93-2.72,7.84-5.46,11.78-8.17a13.5,13.5,0,0,1,1.86-.83c-1.31,3.29-.4,6.15.21,9a5.06,5.06,0,0,1-2.3,5.84c-4.46,2.87-8.86,5.84-13.28,8.77Z" transform="translate(0 -116.16)"/><path d="M185.89,684.5c1,.31,1.76.48,2.47.77,3.91,1.63,7.78,3.36,11.72,4.9a5.26,5.26,0,0,1,3.56,4.64,34.26,34.26,0,0,1,.34,3.5,8.22,8.22,0,0,0,2.64,6.13,24.11,24.11,0,0,1-2.5-.62c-4.37-1.67-8.72-3.43-13.12-5a5.27,5.27,0,0,1-3.74-5.6,25.94,25.94,0,0,0-.1-4.32A33.81,33.81,0,0,0,185.89,684.5Z" transform="translate(0 -116.16)"/><path d="M478.73,190.51c-.87-.53-1.64-.95-2.36-1.44-3.41-2.35-6.75-4.82-10.23-7.07a5.33,5.33,0,0,1-2.58-5.24,14.93,14.93,0,0,1,.25-2.42,9.46,9.46,0,0,0-1-7.57,20.09,20.09,0,0,1,2.23,1c3.93,2.55,7.81,5.19,11.78,7.68,2.44,1.53,3.05,3.62,2.48,6.26a24,24,0,0,0-.75,3.7C478.45,187,478.64,188.61,478.73,190.51Z" transform="translate(0 -116.16)"/><path d="M588.74,321.44a14,14,0,0,0-6.7-1.78,19.2,19.2,0,0,1-3.49-.33,4.72,4.72,0,0,1-3.54-2.67c-1.88-4.49-3.8-9-5.68-13.47a10.62,10.62,0,0,1-.28-1.69c2.89,1.73,5.76,1.59,8.6,1.57a5.41,5.41,0,0,1,5.72,4c1.47,4.17,3.19,8.25,4.79,12.37C588.41,320.08,588.54,320.77,588.74,321.44Z" transform="translate(0 -116.16)"/></g></svg>